<svg width="17" height="17" viewBox="0 0 17 17" fill="none" xmlns="http://www.w3.org/2000/svg">
<path fill-rule="evenodd" clip-rule="evenodd" d="M6.29408 11.5781C9.68766 11.5781 12.5882 12.1194 12.5882 14.2815C12.5882 16.4437 9.70698 17.0005 6.29408 17.0005C2.89958 17.0005 0 16.464 0 14.3009C0 12.1378 2.88026 11.5781 6.29408 11.5781Z" fill="#01469F"/>
<path fill-rule="evenodd" clip-rule="evenodd" d="M6.29407 8.49177C4.06603 8.49177 2.25931 6.59105 2.25931 4.24588C2.25931 1.90072 4.06603 0 6.29407 0C8.52119 0 10.3279 1.90072 10.3279 4.24588C10.3362 6.58233 8.54235 8.48306 6.32259 8.49177H6.29407Z" fill="#01469F"/>
<path fill-rule="evenodd" clip-rule="evenodd" d="M12.6338 7.38934C14.1066 7.17148 15.2408 5.84107 15.2436 4.23083C15.2436 2.64383 14.1443 1.32697 12.7028 1.07812" fill="#01469F"/>
<path fill-rule="evenodd" clip-rule="evenodd" d="M14.5769 11.1172C16.0037 11.3409 17 11.8676 17 12.9521C17 13.6986 16.5308 14.1827 15.7728 14.4858" fill="#01469F"/>
</svg>
