<svg width="19" height="19" viewBox="0 0 19 19" fill="none" xmlns="http://www.w3.org/2000/svg">
<path fill-rule="evenodd" clip-rule="evenodd" d="M7.29408 12.5781C10.6877 12.5781 13.5882 13.1194 13.5882 15.2815C13.5882 17.4437 10.707 18.0005 7.29408 18.0005C3.89958 18.0005 1 17.464 1 15.3009C1 13.1378 3.88026 12.5781 7.29408 12.5781Z" stroke="black" stroke-linecap="round" stroke-linejoin="round"/>
<path fill-rule="evenodd" clip-rule="evenodd" d="M7.29407 9.49177C5.06603 9.49177 3.25931 7.59105 3.25931 5.24588C3.25931 2.90072 5.06603 1 7.29407 1C9.52119 1 11.3279 2.90072 11.3279 5.24588C11.3362 7.58233 9.54235 9.48306 7.32259 9.49177H7.29407Z" stroke="black" stroke-linecap="round" stroke-linejoin="round"/>
<path d="M13.6338 8.38934C15.1066 8.17148 16.2408 6.84107 16.2436 5.23083C16.2436 3.64383 15.1443 2.32697 13.7028 2.07812" stroke="black" stroke-linecap="round" stroke-linejoin="round"/>
<path d="M15.5769 12.1172C17.0037 12.3409 18 12.8676 18 13.9521C18 14.6986 17.5308 15.1827 16.7728 15.4858" stroke="black" stroke-linecap="round" stroke-linejoin="round"/>
</svg>
