<svg width="17" height="14" viewBox="0 0 17 14" fill="none" xmlns="http://www.w3.org/2000/svg">
<path d="M16.5002 6.77539C16.5002 7.15509 16.218 7.46888 15.852 7.51854L15.7502 7.52539L0.750183 7.52539C0.33597 7.52539 0.000183105 7.1896 0.000183105 6.77539C0.000183105 6.39569 0.282337 6.0819 0.648413 6.03224L0.750183 6.02539L15.7502 6.02539C16.1644 6.02539 16.5002 6.36118 16.5002 6.77539Z" fill="white"/>
<path d="M7.32917 12.2675C7.6227 12.5598 7.62372 13.0347 7.33146 13.3282C7.06577 13.595 6.64916 13.6201 6.35508 13.4029L6.2708 13.3305L0.220801 7.30647C-0.0468359 7.03998 -0.0711827 6.62187 0.147771 6.3278L0.220757 6.24357L6.27076 0.218573C6.56426 -0.0737131 7.03913 -0.0727299 7.33141 0.220769C7.59713 0.487586 7.62047 0.904299 7.40201 1.19746L7.32922 1.28143L1.81319 6.7753L7.32917 12.2675Z" fill="white"/>
</svg>
