<svg width="14" height="15" viewBox="0 0 14 15" fill="none" xmlns="http://www.w3.org/2000/svg">
<path d="M10.9619 4.90049C10.9619 3.86601 10.5405 2.87391 9.79034 2.14243C9.0402 1.41094 8.02278 1 6.96191 1C5.90105 1 4.88363 1.41094 4.13349 2.14243C3.38334 2.87391 2.96191 3.86601 2.96191 4.90049C2.96191 9.45105 0.961914 10.7512 0.961914 10.7512H12.9619C12.9619 10.7512 10.9619 9.45105 10.9619 4.90049Z" stroke="#0D0D0D" stroke-linecap="round" stroke-linejoin="round"/>
<path d="M8.11526 13.3516C7.99805 13.5486 7.82982 13.7121 7.62741 13.8258C7.425 13.9395 7.19551 13.9993 6.96193 13.9993C6.72834 13.9993 6.49885 13.9395 6.29644 13.8258C6.09403 13.7121 5.9258 13.5486 5.80859 13.3516" stroke="#0D0D0D" stroke-linecap="round" stroke-linejoin="round"/>
</svg>
