<svg width="11" height="13" viewBox="0 0 11 13" fill="none" xmlns="http://www.w3.org/2000/svg">
<path fill-rule="evenodd" clip-rule="evenodd" d="M9.47231 5.36328H1.30298C1.11323 5.36328 0.959229 5.18128 0.959229 4.95703C0.959229 4.73278 1.11323 4.55078 1.30298 4.55078H9.47231C9.66206 4.55078 9.81606 4.73278 9.81606 4.95703C9.81606 5.18128 9.66206 5.36328 9.47231 5.36328Z" fill="white"/>
<path fill-rule="evenodd" clip-rule="evenodd" d="M7.42566 7.48047C7.23591 7.48047 7.08008 7.29847 7.08008 7.07422C7.08008 6.84997 7.23179 6.66797 7.42154 6.66797H7.42566C7.61541 6.66797 7.76941 6.84997 7.76941 7.07422C7.76941 7.29847 7.61541 7.48047 7.42566 7.48047Z" fill="white"/>
<path fill-rule="evenodd" clip-rule="evenodd" d="M5.39173 7.48047C5.20198 7.48047 5.04614 7.29847 5.04614 7.07422C5.04614 6.84997 5.19785 6.66797 5.3876 6.66797H5.39173C5.58148 6.66797 5.73548 6.84997 5.73548 7.07422C5.73548 7.29847 5.58148 7.48047 5.39173 7.48047Z" fill="white"/>
<path fill-rule="evenodd" clip-rule="evenodd" d="M3.35361 7.48047C3.16386 7.48047 3.00757 7.29847 3.00757 7.07422C3.00757 6.84997 3.15974 6.66797 3.34949 6.66797H3.35361C3.54336 6.66797 3.69736 6.84997 3.69736 7.07422C3.69736 7.29847 3.54336 7.48047 3.35361 7.48047Z" fill="white"/>
<path fill-rule="evenodd" clip-rule="evenodd" d="M7.42566 9.58398C7.23591 9.58398 7.08008 9.40198 7.08008 9.17773C7.08008 8.95348 7.23179 8.77148 7.42154 8.77148H7.42566C7.61541 8.77148 7.76941 8.95348 7.76941 9.17773C7.76941 9.40198 7.61541 9.58398 7.42566 9.58398Z" fill="white"/>
<path fill-rule="evenodd" clip-rule="evenodd" d="M5.39173 9.58398C5.20198 9.58398 5.04614 9.40198 5.04614 9.17773C5.04614 8.95348 5.19785 8.77148 5.3876 8.77148H5.39173C5.58148 8.77148 5.73548 8.95348 5.73548 9.17773C5.73548 9.40198 5.58148 9.58398 5.39173 9.58398Z" fill="white"/>
<path fill-rule="evenodd" clip-rule="evenodd" d="M3.35361 9.58398C3.16386 9.58398 3.00757 9.40198 3.00757 9.17773C3.00757 8.95348 3.15974 8.77148 3.34949 8.77148H3.35361C3.54336 8.77148 3.69736 8.95348 3.69736 9.17773C3.69736 9.40198 3.54336 9.58398 3.35361 9.58398Z" fill="white"/>
<path fill-rule="evenodd" clip-rule="evenodd" d="M7.23877 3.13614C7.04902 3.13614 6.89502 2.95414 6.89502 2.72989V0.947266C6.89502 0.723016 7.04902 0.541016 7.23877 0.541016C7.42852 0.541016 7.58252 0.723016 7.58252 0.947266V2.72989C7.58252 2.95414 7.42852 3.13614 7.23877 3.13614Z" fill="white"/>
<path fill-rule="evenodd" clip-rule="evenodd" d="M3.53638 3.13614C3.34663 3.13614 3.19263 2.95414 3.19263 2.72989V0.947266C3.19263 0.723016 3.34663 0.541016 3.53638 0.541016C3.72613 0.541016 3.88013 0.723016 3.88013 0.947266V2.72989C3.88013 2.95414 3.72613 3.13614 3.53638 3.13614Z" fill="white"/>
<mask id="mask0_1180_9905" style="mask-type:alpha" maskUnits="userSpaceOnUse" x="0" y="1" width="10" height="12">
<path fill-rule="evenodd" clip-rule="evenodd" d="M0.916748 1.39648H9.85425V12.187H0.916748V1.39648Z" fill="white"/>
</mask>
<g mask="url(#mask0_1180_9905)">
<path fill-rule="evenodd" clip-rule="evenodd" d="M3.44721 2.20898C2.25875 2.20898 1.60425 2.95811 1.60425 4.31823V9.21978C1.60425 10.6097 2.25875 11.3745 3.44721 11.3745H7.32379C8.51225 11.3745 9.16675 10.6238 9.16675 9.26094V4.31823C9.16858 3.64928 9.01641 3.12928 8.71437 2.77178C8.40362 2.40344 7.92466 2.20898 7.32791 2.20898H3.44721ZM7.32379 12.187H3.44721C1.88658 12.187 0.916748 11.0501 0.916748 9.21978V4.31823C0.916748 2.51557 1.88658 1.39648 3.44721 1.39648H7.32791C8.11121 1.39648 8.75883 1.67382 9.20112 2.19761C9.63058 2.70732 9.85654 3.44019 9.85425 4.31932V9.26094C9.85425 11.0658 8.88441 12.187 7.32379 12.187Z" fill="white"/>
</g>
</svg>
