<svg width="14" height="12" viewBox="0 0 14 12" fill="none" xmlns="http://www.w3.org/2000/svg">
<path d="M13.3077 9.832C13.3077 10.1248 13.1898 10.4056 12.98 10.6126C12.7701 10.8197 12.4856 10.936 12.1888 10.936H2.11888C1.82214 10.936 1.53754 10.8197 1.32771 10.6126C1.11788 10.4056 1 10.1248 1 9.832V3.76C1 3.4672 1.11788 3.18639 1.32771 2.97935C1.53754 2.77231 1.82214 2.656 2.11888 2.656H4.35664L5.47552 1H8.83217L9.95105 2.656H12.1888C12.4856 2.656 12.7701 2.77231 12.98 2.97935C13.1898 3.18639 13.3077 3.4672 13.3077 3.76V9.832Z" stroke="black" stroke-linecap="round" stroke-linejoin="round"/>
<path d="M7 9C8.10457 9 9 8.10457 9 7C9 5.89543 8.10457 5 7 5C5.89543 5 5 5.89543 5 7C5 8.10457 5.89543 9 7 9Z" stroke="black" stroke-linecap="round" stroke-linejoin="round"/>
</svg>
