<svg width="18" height="18" viewBox="0 0 18 18" fill="none" xmlns="http://www.w3.org/2000/svg">
<path d="M14.8326 14.8328L14.8324 14.833C12.3975 17.267 8.66543 17.9316 5.50853 16.4778C5.01152 16.2779 4.64817 16.1397 4.2798 16.1392C3.89147 16.1423 3.48219 16.2793 3.03449 16.4323C3.02524 16.4355 3.01578 16.4387 3.00611 16.442C2.83531 16.5006 2.60067 16.5811 2.39054 16.6325C2.28106 16.6593 2.15277 16.6848 2.02982 16.6895C1.96812 16.6918 1.88845 16.6899 1.804 16.6706C1.72225 16.6519 1.60067 16.6088 1.49623 16.5023C1.39386 16.3984 1.35226 16.2793 1.33406 16.1989C1.31522 16.1157 1.31303 16.037 1.31517 15.9755C1.31943 15.8531 1.3441 15.7254 1.37031 15.6159C1.42222 15.3992 1.50466 15.1576 1.56363 14.9848L1.56788 14.9723L14.8326 14.8328ZM14.8326 14.8328C18.0475 11.6162 18.0476 6.38471 14.8325 3.16957C13.2764 1.61349 11.2046 0.756164 9.00204 0.756164C6.79871 0.756164 4.72614 1.61427 3.1709 3.17028M14.8326 14.8328L3.1709 3.17028M3.1709 3.17028C0.735583 5.60382 0.0716793 9.33594 1.5135 12.4654M3.1709 3.17028L1.5135 12.4654M1.5135 12.4654C1.71446 12.963 1.85777 13.341 1.85777 13.7148C1.85777 14.1074 1.72153 14.5209 1.56799 14.972L1.5135 12.4654ZM15.013 2.98806L15.0131 2.98815C18.3284 6.30345 18.3284 11.6982 15.0131 15.0135L15.013 15.0136C13.3889 16.6385 11.2002 17.5 8.9811 17.5C7.772 17.5 6.55588 17.2444 5.41843 16.718L5.4066 16.7125L5.3945 16.7077L5.37917 16.7015C5.21027 16.6338 5.02772 16.5606 4.85665 16.5048C4.68622 16.4493 4.48251 16.3954 4.28221 16.3954L4.27916 16.3954C4.07548 16.3967 3.8641 16.4428 3.67919 16.494C3.49235 16.5458 3.29801 16.6128 3.12427 16.6728L3.11914 16.6746C3.11905 16.6746 3.11896 16.6746 3.11888 16.6747C2.74014 16.8047 2.39402 16.9203 2.06935 16.941C1.76971 16.9601 1.52798 16.8959 1.31746 16.6864C1.10788 16.4762 1.04346 16.2352 1.06177 15.9368C1.08163 15.6132 1.19612 15.2679 1.32524 14.8896L1.32552 14.8888C1.38598 14.7119 1.45367 14.5139 1.50553 14.3229C1.55649 14.1352 1.6016 13.9216 1.6016 13.7148C1.6016 13.5242 1.55652 13.3361 1.50131 13.1614C1.44552 12.9849 1.36792 12.7881 1.28324 12.5777L1.27847 12.5658L1.27311 12.5542C-0.206946 9.35784 0.477321 5.50027 2.99008 2.9891L2.99028 2.9889C4.59473 1.38365 6.72773 0.5 9.0012 0.5C11.2748 0.5 13.4086 1.38294 15.013 2.98806ZM12.3073 9.01068C12.4938 9.01068 12.6448 9.16149 12.6448 9.34812C12.6448 9.53476 12.4938 9.68557 12.3073 9.68557C12.1183 9.68557 11.9666 9.53217 11.9666 9.34812C11.9666 9.15821 12.1166 9.01068 12.2998 9.01068H12.3073ZM8.9502 9.01068C9.13666 9.01068 9.28765 9.16149 9.28765 9.34812C9.28765 9.53476 9.13666 9.68557 8.9502 9.68557C8.76115 9.68557 8.60941 9.53217 8.60941 9.34812C8.60941 9.15789 8.75897 9.01068 8.94267 9.01068H8.9502ZM5.59273 9.01068C5.77918 9.01068 5.93017 9.16149 5.93017 9.34812C5.93017 9.53476 5.77918 9.68557 5.59273 9.68557C5.40367 9.68557 5.25193 9.53217 5.25193 9.34812C5.25193 9.15821 5.402 9.01068 5.58519 9.01068H5.59273Z" fill="#898989" stroke="#898989"/>
</svg>
