<svg width="11" height="13" viewBox="0 0 11 13" fill="none" xmlns="http://www.w3.org/2000/svg">
<path d="M6.48136 1H2.09627C1.80552 1 1.52668 1.11589 1.32109 1.32218C1.1155 1.52847 1 1.80826 1 2.1V10.9C1 11.1917 1.1155 11.4715 1.32109 11.6778C1.52668 11.8841 1.80552 12 2.09627 12H8.6739C8.96465 12 9.24349 11.8841 9.44908 11.6778C9.65467 11.4715 9.77017 11.1917 9.77017 10.9V4.3L6.48136 1Z" fill="white" stroke="#212121" stroke-linecap="round" stroke-linejoin="round"/>
<path d="M6.48145 1V4.3H9.77026" fill="white"/>
<path d="M6.48145 1V4.3H9.77026" stroke="#212121" stroke-linecap="round" stroke-linejoin="round"/>
<path d="M7.57747 7.05078H3.19238" stroke="#212121" stroke-linecap="round" stroke-linejoin="round"/>
<path d="M7.57747 9.25H3.19238" stroke="#212121" stroke-linecap="round" stroke-linejoin="round"/>
<path d="M4.28865 4.84961H3.74052H3.19238" fill="white"/>
<path d="M4.28865 4.84961H3.74052H3.19238" stroke="#212121" stroke-linecap="round" stroke-linejoin="round"/>
</svg>
