<svg width="24" height="27" viewBox="0 0 24 27" fill="none" xmlns="http://www.w3.org/2000/svg">
<g filter="url(#filter0_d_1074_3298)">
<path d="M5.23799 13.245C5.23799 13.6654 5.3991 14.0685 5.68587 14.3658C5.97263 14.6631 6.36158 14.8301 6.76713 14.8301H15.942L19.0002 18.0003V5.31947C19.0002 4.89908 18.8391 4.4959 18.5524 4.19864C18.2656 3.90138 17.8767 3.73438 17.4711 3.73438H6.76713C6.36158 3.73438 5.97263 3.90138 5.68587 4.19864C5.3991 4.4959 5.23799 4.89908 5.23799 5.31947V13.245Z" stroke="black" stroke-linecap="round" stroke-linejoin="round"/>
</g>
<g filter="url(#filter1_d_1074_3298)">
<path d="M15.7605 10.5106C15.7605 10.931 15.5994 11.3342 15.3127 11.6314C15.026 11.9287 14.6371 12.0957 14.2316 12.0957H5.05789L2 15.2659V2.5851C2 2.1647 2.16108 1.76153 2.44782 1.46426C2.73455 1.167 3.12344 1 3.52895 1H14.2316C14.6371 1 15.026 1.167 15.3127 1.46426C15.5994 1.76153 15.7605 2.1647 15.7605 2.5851V10.5106Z" fill="white" stroke="black" stroke-linecap="round" stroke-linejoin="round"/>
</g>
<defs>
<filter id="filter0_d_1074_3298" x="0.738037" y="3.23438" width="22.7622" height="23.2656" filterUnits="userSpaceOnUse" color-interpolation-filters="sRGB">
<feFlood flood-opacity="0" result="BackgroundImageFix"/>
<feColorMatrix in="SourceAlpha" type="matrix" values="0 0 0 0 0 0 0 0 0 0 0 0 0 0 0 0 0 0 127 0" result="hardAlpha"/>
<feOffset dy="4"/>
<feGaussianBlur stdDeviation="2"/>
<feComposite in2="hardAlpha" operator="out"/>
<feColorMatrix type="matrix" values="0 0 0 0 1 0 0 0 0 0.991667 0 0 0 0 0.991667 0 0 0 0.25 0"/>
<feBlend mode="normal" in2="BackgroundImageFix" result="effect1_dropShadow_1074_3298"/>
<feBlend mode="normal" in="SourceGraphic" in2="effect1_dropShadow_1074_3298" result="shape"/>
</filter>
<filter id="filter1_d_1074_3298" x="1.5" y="0.5" width="15.7605" height="16.2656" filterUnits="userSpaceOnUse" color-interpolation-filters="sRGB">
<feFlood flood-opacity="0" result="BackgroundImageFix"/>
<feColorMatrix in="SourceAlpha" type="matrix" values="0 0 0 0 0 0 0 0 0 0 0 0 0 0 0 0 0 0 127 0" result="hardAlpha"/>
<feOffset dx="1" dy="1"/>
<feComposite in2="hardAlpha" operator="out"/>
<feColorMatrix type="matrix" values="0 0 0 0 1 0 0 0 0 0.991667 0 0 0 0 0.991667 0 0 0 1 0"/>
<feBlend mode="normal" in2="BackgroundImageFix" result="effect1_dropShadow_1074_3298"/>
<feBlend mode="normal" in="SourceGraphic" in2="effect1_dropShadow_1074_3298" result="shape"/>
</filter>
</defs>
</svg>
