<svg width="15" height="14" viewBox="0 0 15 14" fill="none" xmlns="http://www.w3.org/2000/svg">
<path d="M9.866 9.66705L7.50258 7L5.13916 9.66705" stroke="black" stroke-linecap="round" stroke-linejoin="round"/>
<path d="M7.50293 7V13.0009" stroke="black" stroke-linecap="round" stroke-linejoin="round"/>
<path d="M12.4598 11.2598C13.0361 10.9053 13.4914 10.3443 13.7537 9.66536C14.0161 8.98642 14.0706 8.22822 13.9087 7.51042C13.7468 6.79263 13.3777 6.15611 12.8596 5.70133C12.3416 5.24656 11.704 4.99943 11.0477 4.99894H10.3032C10.1244 4.21832 9.79102 3.49361 9.32826 2.87929C8.86549 2.26498 8.28534 1.77704 7.63141 1.45216C6.97749 1.12729 6.26681 0.97393 5.5528 1.00362C4.83879 1.0333 4.14004 1.24526 3.50907 1.62356C2.8781 2.00186 2.33134 2.53665 1.90989 3.18773C1.48844 3.83881 1.20327 4.58924 1.07581 5.38259C0.94836 6.17594 0.981941 6.99158 1.17403 7.76817C1.36612 8.54477 1.71173 9.26213 2.18486 9.8663" stroke="black" stroke-linecap="round" stroke-linejoin="round"/>
<path d="M9.866 9.66705L7.50258 7L5.13916 9.66705" stroke="black" stroke-linecap="round" stroke-linejoin="round"/>
</svg>
