<svg width="13" height="11" viewBox="0 0 13 11" fill="none" xmlns="http://www.w3.org/2000/svg">
<path d="M5.01355 6.76762C4.66389 6.44012 4.45105 5.99508 4.45105 5.49584C4.45105 4.49565 5.3097 3.68945 6.37511 3.68945C6.90234 3.68945 7.38761 3.88972 7.73119 4.21722" stroke="#808080" stroke-linecap="round" stroke-linejoin="round"/>
<path d="M8.26323 5.82031C8.12215 6.55633 7.50431 7.13716 6.72046 7.27067" stroke="#808080" stroke-linecap="round" stroke-linejoin="round"/>
<path d="M3.12466 8.54471C2.1596 7.83379 1.3423 6.79538 0.75 5.50078C1.34838 4.20047 2.17115 3.15635 3.1423 2.43973C4.10737 1.72311 5.22081 1.33398 6.375 1.33398C7.53588 1.33398 8.64872 1.72881 9.61987 2.45057" stroke="#808080" stroke-linecap="round" stroke-linejoin="round"/>
<path d="M10.9041 3.70508C11.3225 4.22657 11.6904 4.82851 11.9999 5.50006C10.8038 8.10009 8.69 9.66628 6.37494 9.66628C5.85014 9.66628 5.33264 9.5864 4.83521 9.43064" stroke="#808080" stroke-linecap="round" stroke-linejoin="round"/>
<path d="M11.1715 1L1.57922 10" stroke="#808080" stroke-linecap="round" stroke-linejoin="round"/>
</svg>
