<svg width="20" height="20" viewBox="0 0 20 20" fill="none" xmlns="http://www.w3.org/2000/svg">
<path d="M7.29406 17.9039V15.1437C7.29405 14.4443 7.89274 13.876 8.63431 13.8716H11.3572C12.1021 13.8716 12.7059 14.4412 12.7059 15.1437V15.1437V17.8959C12.7059 18.5026 13.2249 18.9956 13.868 19H15.7257C16.5933 19.0021 17.4262 18.6785 18.0405 18.1006C18.6548 17.5228 19 16.7381 19 15.9198V8.07926C19 7.41825 18.6893 6.79124 18.1517 6.36715L11.8407 1.60684C10.7375 0.77421 9.16193 0.801107 8.09142 1.67085L1.91612 6.36715C1.35312 6.77874 1.01663 7.40761 1 8.07926V15.9118C1 17.6173 2.46594 19 4.27427 19H6.08954C6.39922 19.0021 6.69699 18.8876 6.91676 18.6818C7.13654 18.476 7.26014 18.196 7.26013 17.9039H7.29406Z" stroke="black"/>
</svg>
