<svg width="15" height="15" viewBox="0 0 15 15" fill="none" xmlns="http://www.w3.org/2000/svg">
<path d="M6.19287 8.15333C6.4736 8.52896 6.83176 8.83976 7.24305 9.06467C7.65435 9.28957 8.10916 9.42332 8.57664 9.45683C9.04412 9.49033 9.51334 9.42283 9.95246 9.25888C10.3916 9.09493 10.7903 8.83838 11.1217 8.50663L13.0827 6.54387C13.6781 5.9269 14.0076 5.10056 14.0001 4.24285C13.9927 3.38513 13.6489 2.56465 13.0429 1.95813C12.4369 1.35161 11.6172 1.00758 10.7602 1.00012C9.90322 0.99267 9.0776 1.3224 8.46117 1.91829L7.33682 3.03706" stroke="black" stroke-linecap="round" stroke-linejoin="round"/>
<path d="M8.80736 6.84505C8.52663 6.46943 8.16847 6.15862 7.75718 5.93372C7.34588 5.70881 6.89107 5.57507 6.42359 5.54156C5.95611 5.50805 5.4869 5.57556 5.04777 5.73951C4.60865 5.90345 4.2099 6.16 3.87855 6.49176L1.91749 8.45452C1.32212 9.07149 0.992677 9.89782 1.00012 10.7555C1.00757 11.6133 1.35131 12.4337 1.9573 13.0403C2.5633 13.6468 3.38306 13.9908 4.24004 13.9983C5.09701 14.0057 5.92263 13.676 6.53906 13.0801L7.65687 11.9613" stroke="black" stroke-linecap="round" stroke-linejoin="round"/>
</svg>
