<svg width="19" height="19" viewBox="0 0 19 19" fill="none" xmlns="http://www.w3.org/2000/svg">
<path d="M13.4582 1H5.54278C2.67167 1 1 2.513 1 5.1055V13.886C1 16.521 2.67167 18 5.54278 18H13.4582C16.3756 18 18 16.521 18 13.886V5.1055C18 2.513 16.3756 1 13.4582 1Z" fill="#01469F"/>
<path d="M13.4582 1H5.54278C2.67167 1 1 2.513 1 5.1055V13.886C1 16.521 2.67167 18 5.54278 18H13.4582C16.3756 18 18 16.521 18 13.886V5.1055C18 2.513 16.3756 1 13.4582 1" stroke="#01469F"/>
<path fill-rule="evenodd" clip-rule="evenodd" d="M6.18396 5.72266V5.73046C5.82432 5.73046 5.5331 6.00364 5.5331 6.33926C5.5331 6.67488 5.82432 6.94806 6.18396 6.94806H8.6781C9.03774 6.94806 9.3298 6.67488 9.3298 6.33067C9.3298 5.99584 9.03774 5.72266 8.6781 5.72266H6.18396ZM12.7259 10.4762H6.18394C5.8243 10.4762 5.53308 10.203 5.53308 9.86739C5.53308 9.53177 5.8243 9.25781 6.18394 9.25781H12.7259C13.0848 9.25781 13.3768 9.53177 13.3768 9.86739C13.3768 10.203 13.0848 10.4762 12.7259 10.4762ZM12.7262 14.0429H6.18421C5.93388 14.0741 5.6919 13.957 5.55838 13.7619C5.42487 13.559 5.42487 13.3014 5.55838 13.1063C5.6919 12.9033 5.93388 12.7941 6.18421 12.8175H12.7262C13.0592 12.8487 13.3103 13.1141 13.3103 13.4341C13.3103 13.7455 13.0592 14.0117 12.7262 14.0429Z" fill="white"/>
</svg>
