<svg width="15" height="12" viewBox="0 0 15 12" fill="none" xmlns="http://www.w3.org/2000/svg">
<path d="M14 6.10742H1" stroke="black" stroke-linecap="round" stroke-linejoin="round"/>
<path d="M3.2425 1.70862L1 6.10714V9.9375C1 10.2761 1.13696 10.6009 1.38076 10.8403C1.62456 11.0798 1.95522 11.2143 2.3 11.2143H12.7C13.0448 11.2143 13.3754 11.0798 13.6192 10.8403C13.863 10.6009 14 10.2761 14 9.9375V6.10714L11.7575 1.70862C11.6499 1.4959 11.484 1.31688 11.2784 1.1917C11.0729 1.06651 10.8359 1.00013 10.594 1H4.406C4.16415 1.00013 3.92712 1.06651 3.72158 1.1917C3.51604 1.31688 3.35013 1.4959 3.2425 1.70862V1.70862Z" stroke="black" stroke-linecap="round" stroke-linejoin="round"/>
<path d="M3.6001 8.66016H3.6071" stroke="black" stroke-linecap="round" stroke-linejoin="round"/>
<path d="M6.19971 8.66016H6.20671" stroke="black" stroke-linecap="round" stroke-linejoin="round"/>
</svg>
