<svg width="23" height="18" viewBox="0 0 23 18" fill="none" xmlns="http://www.w3.org/2000/svg">
<path d="M6.76249 1.0465C6.61295 1.02333 6.46085 1.01095 6.30429 1.01095C4.22674 1.01095 2.54343 3.14066 3.11709 5.56998C3.49953 7.18734 4.87733 8.24695 6.39831 8.20402L6.76249 1.0465ZM6.76249 1.0465C6.12431 2.084 5.76093 3.32368 5.76093 4.64578C5.76093 5.9427 6.1095 7.15633 6.72599 8.17722C6.61994 8.19214 6.51092 8.2007 6.39858 8.20402L6.76249 1.0465ZM20.3356 14.7117C20.546 12.3027 19.1166 10.8783 18.1782 10.2071C19.2248 10.2456 20.2092 10.3916 20.6099 10.4975L20.6098 10.4978L20.622 10.5003C21.6904 10.7263 22.3241 11.1731 22.5795 11.7613L22.5795 11.7613L22.5806 11.7637C22.8064 12.2688 22.8063 12.8558 22.5807 13.3597L22.5806 13.3597L22.579 13.3635C22.3833 13.8204 21.9607 14.1409 21.4849 14.3612C21.0603 14.5578 20.6208 14.6617 20.3356 14.7117ZM1.37982 13.3638L1.37986 13.3638L1.37811 13.3599C1.15163 12.8551 1.15163 12.2693 1.37811 11.7644L1.37812 11.7644L1.37932 11.7617C1.63476 11.1733 2.26775 10.7267 3.33615 10.4997L3.33621 10.5L3.34751 10.497C3.7493 10.3918 4.73331 10.2459 5.78019 10.2075C4.84121 10.8788 3.41163 12.3032 3.6224 14.7119C3.33718 14.6618 2.89811 14.558 2.47398 14.3616C1.9981 14.1413 1.5755 13.8208 1.37982 13.3638ZM17.1959 1.04651C17.3449 1.02341 17.4968 1.01104 17.6532 1.01104C19.7308 1.01104 21.4141 3.14078 20.8413 5.57015C20.4588 7.18747 19.081 8.24705 17.5601 8.20412C17.4486 8.20084 17.3391 8.19186 17.2326 8.17698C17.849 7.15617 18.1975 5.94266 18.1975 4.64588C18.1975 3.32375 17.8341 2.08404 17.1959 1.04651ZM11.928 11.613C13.6405 11.613 15.1959 11.7602 16.3152 12.1835C16.8725 12.3942 17.3058 12.6675 17.5986 13.0103C17.8873 13.3483 18.051 13.7668 18.051 14.2963C18.051 14.8261 17.8882 15.2461 17.6005 15.586C17.3088 15.9306 16.8772 16.2063 16.3212 16.4194C15.2046 16.8475 13.6495 17 11.928 17C10.2155 17 8.66009 16.8528 7.54079 16.4297C6.98348 16.219 6.55025 15.9457 6.25744 15.6031C5.96874 15.2653 5.80503 14.847 5.80503 14.3177C5.80503 13.7877 5.9679 13.3675 6.25559 13.0274C6.54724 12.6827 6.97891 12.4069 7.53485 12.1937C8.65146 11.7655 10.2066 11.613 11.928 11.613ZM11.928 0.25C14.1123 0.25 15.8953 2.14851 15.8953 4.56354C15.8953 6.97772 14.1122 8.87806 11.928 8.87806C9.74382 8.87806 7.96076 6.97772 7.96076 4.56354C7.96076 2.14851 9.74372 0.25 11.928 0.25ZM16.8772 1.01155C16.8557 0.979511 16.8395 0.929992 16.8611 0.893095L16.8772 1.01155Z" fill="#01469F" stroke="white" stroke-width="0.5"/>
</svg>
