<svg width="15" height="16" viewBox="0 0 15 16" fill="none" xmlns="http://www.w3.org/2000/svg">
<path fill-rule="evenodd" clip-rule="evenodd" d="M14.1763 5.19094L13.7085 4.40018C13.3127 3.73108 12.4356 3.50025 11.7477 3.88418V3.88418C11.4203 4.07206 11.0296 4.12536 10.6618 4.03234C10.2939 3.93931 9.97921 3.70759 9.78698 3.38828C9.66331 3.18531 9.59686 2.95414 9.59434 2.71814V2.71814C9.6055 2.33976 9.45895 1.9731 9.18807 1.70168C8.9172 1.43026 8.54507 1.27719 8.15645 1.27734H7.21391C6.83319 1.27734 6.46816 1.42511 6.1996 1.68797C5.93103 1.95083 5.78107 2.30709 5.7829 2.67793V2.67793C5.77162 3.44359 5.13115 4.05849 4.34501 4.05841C4.10272 4.05596 3.86539 3.99123 3.65703 3.87077V3.87077C2.96916 3.48685 2.09205 3.71768 1.69627 4.38678L1.19404 5.19094C0.798731 5.85921 1.03248 6.71303 1.71691 7.10083V7.10083C2.1618 7.35102 2.43586 7.8134 2.43586 8.31378C2.43586 8.81417 2.1618 9.27654 1.71691 9.52673V9.52673C1.03335 9.91192 0.799345 10.7637 1.19404 11.4299V11.4299L1.66875 12.2274C1.85419 12.5533 2.16533 12.7938 2.53332 12.8957C2.9013 12.9976 3.2958 12.9524 3.62951 12.7702V12.7702C3.95756 12.5837 4.34849 12.5327 4.71539 12.6283C5.0823 12.7239 5.39478 12.9584 5.58339 13.2795C5.70705 13.4825 5.77351 13.7136 5.77602 13.9496V13.9496C5.77602 14.7232 6.41979 15.3502 7.21391 15.3502H8.15645C8.9479 15.3502 9.59056 14.7272 9.59434 13.9563V13.9563C9.5925 13.5843 9.7434 13.227 10.0135 12.964C10.2835 12.7009 10.6503 12.554 11.0322 12.5558C11.2739 12.5621 11.5103 12.6265 11.7202 12.7434V12.7434C12.4063 13.1284 13.2828 12.9008 13.681 12.2341V12.2341L14.1763 11.4299C14.3681 11.1094 14.4207 10.7276 14.3226 10.3691C14.2244 10.0106 13.9836 9.70504 13.6535 9.52003V9.52003C13.3233 9.33502 13.0825 9.02945 12.9844 8.67097C12.8862 8.3125 12.9389 7.9307 13.1306 7.61014C13.2553 7.3981 13.4358 7.22228 13.6535 7.10083V7.10083C14.3338 6.71324 14.567 5.86441 14.1763 5.19765V5.19765V5.19094Z" stroke="#182F5D" stroke-linecap="round" stroke-linejoin="round"/>
<ellipse cx="7.6887" cy="8.31281" rx="1.9814" ry="1.92999" stroke="#182F5D" stroke-linecap="round" stroke-linejoin="round"/>
</svg>
