<svg width="14" height="15" viewBox="0 0 14 15" fill="none" xmlns="http://www.w3.org/2000/svg">
<path d="M7.0243 1.78993L7.02469 8.97208H6.97469L6.9743 1.78987L6.97423 0.578756L6.1199 1.4372L4.97652 2.58607L4.97652 2.58607L4.97497 2.58763C4.97281 2.58982 4.97099 2.59091 4.96903 2.59171C4.96665 2.59268 4.96326 2.59347 4.95922 2.59347C4.95589 2.59347 4.95265 2.59281 4.94995 2.59171C4.94759 2.59076 4.94517 2.58932 4.94247 2.58662L4.94187 2.58602C4.93176 2.57595 4.9321 2.56073 4.94167 2.55113L4.94186 2.55094L6.98045 0.503261C6.98062 0.503188 6.98082 0.503108 6.98104 0.503023C6.98457 0.501646 6.99115 0.5 6.99972 0.5C7.00829 0.5 7.01487 0.501646 7.0184 0.503023C7.01862 0.503108 7.01882 0.503188 7.01899 0.503262L9.05786 2.55052C9.05787 2.55053 9.05789 2.55054 9.0579 2.55056C9.06819 2.56096 9.06761 2.5764 9.05856 2.58573C9.04731 2.59659 9.0323 2.59481 9.02398 2.58643L9.02338 2.58583L7.87846 1.43696L7.02423 0.579777L7.0243 1.78993ZM7.01662 0.500873L7.01668 0.500933L7.01662 0.500873ZM3.7576 5.24925C3.77126 5.24925 3.7826 5.2606 3.7826 5.27425C3.7826 5.28791 3.77126 5.29925 3.7576 5.29925H3.1045C1.69517 5.29925 0.55 6.4442 0.55 7.85306V11.2656C0.55 12.675 1.69506 13.8201 3.1045 13.8201H10.8955C12.3041 13.8201 13.45 12.6751 13.45 11.2656V7.84676C13.45 6.44162 12.3079 5.29925 10.9032 5.29925H10.2431C10.2294 5.29925 10.2181 5.28791 10.2181 5.27425C10.2181 5.2606 10.2294 5.24925 10.2431 5.24925H10.9032C12.3343 5.24925 13.5 6.41482 13.5 7.84676V11.2656C13.5 12.7015 12.3309 13.8701 10.8955 13.8701H3.1045C1.66907 13.8701 0.5 12.7015 0.5 11.2656V7.85306C0.5 6.41784 1.669 5.24925 3.1045 5.24925H3.7576Z" fill="black" stroke="black"/>
</svg>
