<svg width="264" height="195" viewBox="0 0 264 195" fill="none" xmlns="http://www.w3.org/2000/svg">
<path d="M131.536 155.223C125.065 155.223 119.016 157.024 113.86 160.151V161.828H149.211V160.151C144.056 157.024 138.006 155.223 131.536 155.223Z" fill="#FED100" fill-opacity="0.8" stroke="black" stroke-width="0.5"/>
<path d="M153.892 189.773H109.181V161.827H153.892V189.773Z" fill="#97512C" stroke="black" stroke-width="0.5"/>
<path d="M156.979 194H106.093V189.772H156.979V194Z" fill="#7C3E25"/>
<path d="M156.979 194H106.093V189.772H156.979V194" stroke="black" stroke-width="0.5"/>
<path d="M135.067 127.771C133.968 128.182 132.778 128.406 131.536 128.406C130.294 128.406 129.104 128.182 128.005 127.772L128.01 127.758C128.01 125.69 127.018 123.534 125.032 122.02L124.995 122.001C118.053 117.335 112.455 110.826 108.9 103.174L108.898 103.175C102.682 89.908 99.2095 75.0994 99.2095 59.4798H163.862C163.862 75.0994 160.389 89.908 154.174 103.175L154.172 103.174C150.617 110.826 145.018 117.335 138.076 122.001L138.041 122.02C136.055 123.534 135.063 125.69 135.063 127.758L135.067 127.771Z" fill="#FED100" fill-opacity="0.8"/>
<path d="M135.067 127.771C133.968 128.182 132.778 128.406 131.536 128.406C130.294 128.406 129.104 128.182 128.005 127.772L128.01 127.758C128.01 125.69 127.018 123.534 125.032 122.02L124.995 122.001C118.053 117.335 112.455 110.826 108.9 103.174L108.898 103.175C102.682 89.908 99.2095 75.0994 99.2095 59.4798H163.862C163.862 75.0994 160.389 89.908 154.174 103.175L154.172 103.174C150.617 110.826 145.018 117.335 138.076 122.001L138.041 122.02C136.055 123.534 135.063 125.69 135.063 127.758L135.067 127.771" stroke="black" stroke-width="0.5"/>
<path d="M134.542 127.952C134.542 129.91 135.404 131.543 136.769 132.741H136.773C137.246 133.176 137.543 133.796 137.543 134.489C137.543 135.804 136.476 136.871 135.161 136.871C135.137 136.871 135.114 136.871 135.092 136.87H127.98C127.957 136.871 127.934 136.871 127.911 136.871C126.596 136.871 125.529 135.804 125.529 134.489C125.529 133.796 125.826 133.176 126.298 132.741H126.303C127.668 131.543 128.53 129.91 128.53 127.952H134.542Z" fill="#FED100" fill-opacity="0.8"/>
<path d="M134.542 127.952C134.542 129.91 135.404 131.543 136.769 132.741H136.773C137.246 133.176 137.543 133.796 137.543 134.489C137.543 135.804 136.476 136.871 135.161 136.871C135.137 136.871 135.114 136.871 135.092 136.87H127.98C127.957 136.871 127.934 136.871 127.911 136.871C126.596 136.871 125.529 135.804 125.529 134.489C125.529 133.796 125.826 133.176 126.298 132.741H126.303C127.668 131.543 128.53 129.91 128.53 127.952H134.542" stroke="black" stroke-width="0.5"/>
<path d="M137.56 157.251C135.65 157.815 133.628 158.117 131.536 158.117C129.444 158.117 127.422 157.815 125.513 157.251L125.529 157.195V153.25C127.025 149.715 127.851 145.828 127.851 141.749C127.851 140.07 127.711 138.425 127.443 136.823H135.63C135.361 138.425 135.221 140.07 135.221 141.749C135.221 145.828 136.048 149.715 137.543 153.25V157.195L137.56 157.251Z" fill="#FFDB31"/>
<path d="M137.56 157.251C135.65 157.815 133.628 158.117 131.536 158.117C129.444 158.117 127.422 157.815 125.513 157.251L125.529 157.195V153.25C127.025 149.715 127.851 145.828 127.851 141.749C127.851 140.07 127.711 138.425 127.443 136.823H135.63C135.361 138.425 135.221 140.07 135.221 141.749C135.221 145.828 136.048 149.715 137.543 153.25V157.195L137.56 157.251" stroke="black" stroke-width="0.5"/>
<path d="M110.445 106.481H110.446H110.445ZM110.45 106.481H110.45H110.45ZM108.473 110.346L108.483 110.356L108.473 110.346ZM108.698 121.203C107.051 121.203 105.457 120.613 104.208 119.542C103.199 118.676 103.083 117.155 103.949 116.146C104.815 115.136 106.335 115.02 107.345 115.886C107.611 116.114 108.062 116.386 108.698 116.386C109.846 116.386 110.78 115.453 110.78 114.305C110.78 114.141 110.761 113.978 110.724 113.821C110.399 112.67 109.778 111.621 108.924 110.773C108.69 110.594 108.52 110.41 108.413 110.29L87.3356 90.51C80.3516 83.9559 75.2322 73.6939 79.5385 65.5427C81.3755 62.0656 85.0448 59.7817 88.9604 59.647C89.0183 59.6429 89.077 59.6408 89.136 59.6408H89.3267C89.3836 59.6408 89.4404 59.6427 89.4965 59.6466C95.3257 59.8377 100.01 64.6395 100.01 70.5147C100.01 73.2476 98.9919 75.8603 97.1433 77.8712C96.243 78.8507 94.7196 78.9147 93.7403 78.0147C92.7611 77.1146 92.6969 75.591 93.5969 74.6118C94.626 73.4921 95.1928 72.0369 95.1928 70.5147C95.1928 67.2067 92.5277 64.5096 89.2318 64.4584C86.9784 64.4938 84.8532 65.7948 83.7973 67.7929C80.6936 73.6682 85.1644 81.8665 90.6317 86.9976L111.778 106.842C111.838 106.898 111.888 106.951 111.931 106.997C111.986 107.041 112.04 107.087 112.092 107.136C113.664 108.617 114.799 110.494 115.374 112.566C115.38 112.585 115.385 112.604 115.39 112.624C115.527 113.171 115.597 113.737 115.597 114.305C115.597 118.109 112.502 121.203 108.698 121.203Z" fill="#FED100" fill-opacity="0.8"/>
<path d="M108.698 121.203C107.051 121.203 105.457 120.613 104.208 119.542C103.199 118.676 103.083 117.155 103.949 116.146C104.815 115.136 106.335 115.02 107.345 115.886C107.611 116.114 108.062 116.386 108.698 116.386C109.846 116.386 110.78 115.453 110.78 114.305C110.78 114.141 110.761 113.978 110.724 113.821C110.399 112.67 109.778 111.621 108.924 110.773C108.69 110.594 108.52 110.41 108.413 110.29L87.3356 90.51C80.3516 83.9559 75.2322 73.6939 79.5385 65.5427C81.3755 62.0656 85.0448 59.7817 88.9604 59.647C89.0183 59.6429 89.077 59.6408 89.136 59.6408H89.3267C89.3836 59.6408 89.4404 59.6427 89.4965 59.6466C95.3257 59.8377 100.01 64.6395 100.01 70.5147C100.01 73.2476 98.9919 75.8603 97.1433 77.8712C96.243 78.8507 94.7196 78.9147 93.7403 78.0147C92.7611 77.1146 92.6969 75.591 93.5969 74.6118C94.626 73.4921 95.1928 72.0369 95.1928 70.5147C95.1928 67.2067 92.5277 64.5096 89.2318 64.4584C86.9784 64.4938 84.8532 65.7948 83.7973 67.7929C80.6936 73.6682 85.1644 81.8665 90.6317 86.9976L111.778 106.842C111.838 106.898 111.888 106.951 111.931 106.997C111.986 107.041 112.04 107.087 112.092 107.136C113.664 108.617 114.799 110.494 115.374 112.566C115.38 112.585 115.385 112.604 115.39 112.624C115.527 113.171 115.597 113.737 115.597 114.305C115.597 118.109 112.502 121.203 108.698 121.203M110.445 106.481H110.446H110.445ZM110.45 106.481H110.45H110.45ZM108.473 110.346L108.483 110.356L108.473 110.346Z" stroke="black" stroke-width="0.5"/>
<path d="M152.626 106.481H152.627H152.626ZM152.622 106.481H152.623H152.622ZM154.589 110.356L154.599 110.346L154.589 110.356ZM147.476 114.305C147.476 113.737 147.545 113.171 147.682 112.624C147.688 112.604 147.693 112.585 147.698 112.566C148.273 110.494 149.408 108.617 150.981 107.136C151.032 107.087 151.086 107.041 151.141 106.997C151.184 106.951 151.234 106.898 151.294 106.842L172.44 86.9976C177.908 81.8665 182.379 73.6682 179.275 67.7929C178.219 65.7948 176.094 64.4938 173.84 64.4584C170.545 64.5096 167.879 67.2067 167.879 70.5147C167.879 72.0369 168.446 73.4921 169.475 74.6118C170.375 75.591 170.311 77.1146 169.332 78.0147C168.353 78.9147 166.829 78.8507 165.929 77.8712C164.08 75.8603 163.062 73.2476 163.062 70.5147C163.062 64.6395 167.746 59.8377 173.576 59.6466C173.632 59.6427 173.689 59.6408 173.746 59.6408H173.936C173.995 59.6408 174.054 59.6429 174.112 59.647C178.027 59.7817 181.697 62.0656 183.534 65.5427C187.84 73.6939 182.721 83.9559 175.737 90.51L154.659 110.29C154.552 110.41 154.382 110.594 154.148 110.773C153.294 111.621 152.674 112.67 152.348 113.821C152.311 113.978 152.292 114.141 152.292 114.305C152.292 115.453 153.226 116.386 154.374 116.386C155.011 116.386 155.461 116.114 155.727 115.886C156.737 115.02 158.257 115.136 159.123 116.146C159.989 117.155 159.873 118.676 158.864 119.542C157.615 120.613 156.021 121.203 154.374 121.203C150.57 121.203 147.476 118.109 147.476 114.305Z" fill="#FED100" fill-opacity="0.8"/>
<path d="M147.476 114.305C147.476 113.737 147.545 113.171 147.682 112.624C147.688 112.604 147.693 112.585 147.698 112.566C148.273 110.494 149.408 108.617 150.981 107.136C151.032 107.087 151.086 107.041 151.141 106.997C151.184 106.951 151.234 106.898 151.294 106.842L172.44 86.9976C177.908 81.8665 182.379 73.6682 179.275 67.7929C178.219 65.7948 176.094 64.4938 173.84 64.4584C170.545 64.5096 167.879 67.2067 167.879 70.5147C167.879 72.0369 168.446 73.4921 169.475 74.6118C170.375 75.591 170.311 77.1146 169.332 78.0147C168.353 78.9147 166.829 78.8507 165.929 77.8712C164.08 75.8603 163.062 73.2476 163.062 70.5147C163.062 64.6395 167.746 59.8377 173.576 59.6466C173.632 59.6427 173.689 59.6408 173.746 59.6408H173.936C173.995 59.6408 174.054 59.6429 174.112 59.647C178.027 59.7817 181.697 62.0656 183.534 65.5427C187.84 73.6939 182.721 83.9559 175.737 90.51L154.659 110.29C154.552 110.41 154.382 110.594 154.148 110.773C153.294 111.621 152.674 112.67 152.348 113.821C152.311 113.978 152.292 114.141 152.292 114.305C152.292 115.453 153.226 116.386 154.374 116.386C155.011 116.386 155.461 116.114 155.727 115.886C156.737 115.02 158.257 115.136 159.123 116.146C159.989 117.155 159.873 118.676 158.864 119.542C157.615 120.613 156.021 121.203 154.374 121.203C150.57 121.203 147.476 118.109 147.476 114.305M152.626 106.481H152.627H152.626ZM152.622 106.481H152.623H152.622ZM154.589 110.356L154.599 110.346L154.589 110.356Z" stroke="black" stroke-width="0.5"/>
<path d="M112.934 62.4199H101.992C101.992 73.5705 104.172 84.2117 108.129 93.9414C107.532 90.9706 107.217 87.8979 107.217 84.7515C107.217 76.6561 109.291 69.0459 112.934 62.4199Z" fill="#FFDF5A" fill-opacity="0.8" stroke="black" stroke-width="0.5"/>
<path d="M109.181 189.773H153.892V161.827C153.892 161.827 138.949 189.773 109.181 189.773Z" fill="#8D492B" stroke="black" stroke-width="0.5"/>
<path d="M147.839 184.244H115.232V168.277H147.839V184.244Z" fill="#FED100" fill-opacity="0.8" stroke="black" stroke-width="0.5"/>
<path d="M81.3654 68.7253C83.3167 65.0318 87.2145 62.606 91.3737 62.4627C91.4351 62.4582 91.4975 62.4558 91.5601 62.4558H91.7627C91.8231 62.4558 91.8835 62.458 91.9432 62.4623C93.2052 62.5036 94.4153 62.7516 95.5445 63.168C93.8807 61.628 91.681 60.6593 89.2596 60.5799C89.2093 60.5762 89.1584 60.5745 89.1073 60.5745H88.9366C88.8837 60.5745 88.8313 60.5764 88.7794 60.5801C85.2731 60.701 81.9871 62.7461 80.3418 65.8598C78.5716 69.2107 78.5812 72.96 79.7135 76.6035C79.564 73.8901 80.0502 71.2149 81.3654 68.7253Z" fill="#FFDF5A" fill-opacity="0.8" stroke="black" stroke-width="0.5"/>
<path d="M115.599 113.612C118.329 116.818 121.49 119.645 124.996 122.001L125.033 122.02C127.018 123.534 128.011 125.69 128.011 127.758L128.006 127.772C129.105 128.182 130.294 128.406 131.536 128.406C132.779 128.406 133.969 128.182 135.068 127.771L135.063 127.758C135.063 125.69 136.056 123.534 138.041 122.02L138.077 122.001C145.019 117.335 150.618 110.826 154.172 103.174L154.174 103.175C160.39 89.908 163.863 75.0994 163.863 59.4798C149.578 116.066 115.754 113.612 115.599 113.612Z" fill="#FCC200" stroke="black" stroke-width="0.5"/>
<path d="M39.1327 95.1424L39.1326 95.1425L39.1326 95.1425L39.0251 95.4658L38.7491 95.266L38.7491 95.266L38.749 95.2659L38.7489 95.2658L38.7483 95.2654L38.7436 95.2621L38.7221 95.2473C38.7024 95.2339 38.6721 95.2138 38.6317 95.1883C38.5508 95.1373 38.4293 95.0646 38.2708 94.9807C37.9535 94.8128 37.489 94.6005 36.9048 94.4263C35.7375 94.0782 34.0947 93.8825 32.19 94.4954L32.1899 94.4954C28.8349 95.5725 27.3762 98.9812 28.3778 102.1L39.1327 95.1424ZM39.1327 95.1424L39.1327 95.1422L39.1329 95.1415L39.1348 95.1361L39.1436 95.1116C39.1518 95.0893 39.1647 95.0553 39.1827 95.011C39.2186 94.9224 39.2748 94.7926 39.3546 94.632C39.5142 94.3107 39.7676 93.8675 40.1403 93.3855C40.8851 92.4222 42.1051 91.3055 44.0098 90.6926L44.0099 90.6926C47.3651 89.612 50.5364 91.5289 51.5414 94.6481C52.6927 98.2361 50.952 103.602 43.748 110.153C34.076 109.033 29.5327 105.688 28.3778 102.101L39.1327 95.1424Z" fill="#F48C7F" stroke="black" stroke-width="0.5"/>
<path d="M10.4109 105.599L10.4112 105.599C13.9777 105.06 16.8155 104.444 19.5768 103.71C19.7574 103.662 19.9672 103.616 20.1833 103.57C20.2484 103.556 20.3141 103.542 20.3797 103.527C20.6683 103.464 20.9641 103.394 21.2425 103.304C21.8148 103.119 22.2384 102.871 22.4026 102.5L22.4033 102.499C22.4977 102.289 22.5202 102.095 22.4829 101.931C22.4465 101.771 22.3483 101.617 22.1581 101.491C21.8086 101.26 21.3525 101.262 20.8217 101.382C20.5603 101.441 20.2948 101.526 20.0311 101.614C19.9873 101.628 19.9434 101.643 19.8995 101.658C19.6837 101.73 19.4685 101.802 19.2704 101.855L19.2695 101.856C16.4539 102.604 13.2361 103.318 9.94421 103.85L9.94341 103.85C9.72534 103.884 9.53572 104.032 9.41135 104.248C9.2862 104.464 9.24338 104.723 9.296 104.939L9.29611 104.939C9.41484 105.43 9.88624 105.679 10.4109 105.599Z" fill="#F48C7F" stroke="black" stroke-width="0.5"/>
<path d="M63.2295 99.551C63.546 99.4676 63.8803 99.3939 64.2209 99.3188C65.2618 99.0894 66.3612 98.8472 67.1892 98.2741C68.0021 97.7124 67.7684 96.4983 66.7357 96.4111C65.728 96.3245 64.665 96.6543 63.6522 96.9687C63.3186 97.0722 62.9903 97.1741 62.6713 97.2588M63.2295 99.551C63.0674 99.5939 62.9052 99.6369 62.7431 99.68C61.562 99.9932 60.3807 100.307 59.1966 100.601M63.2295 99.551L63.2295 99.551L63.2295 99.551ZM59.1966 100.601C57.7488 100.96 57.2254 98.7625 58.6523 98.3578C59.6474 98.072 60.6464 97.8036 61.6449 97.5353C61.9872 97.4433 62.3294 97.3514 62.6713 97.2588M59.1966 100.601L59.1364 100.358M59.1966 100.601L59.1363 100.358C59.1363 100.358 59.1363 100.358 59.1364 100.358M62.6713 97.2588L62.7367 97.5001C62.7365 97.5001 62.7363 97.5002 62.7361 97.5003M62.6713 97.2588L62.7355 97.5004C62.7357 97.5004 62.7359 97.5003 62.7361 97.5003M62.7361 97.5003C62.3933 97.5931 62.0506 97.6852 61.7081 97.7772C60.7102 98.0453 59.7142 98.3129 58.7213 98.5981L58.7205 98.5983C58.1639 98.7561 57.9802 99.2527 58.0895 99.7075C58.1441 99.9347 58.2702 100.133 58.4438 100.255C58.612 100.373 58.8412 100.432 59.1364 100.358M62.7361 97.5003C63.06 97.4142 63.3922 97.3111 63.7238 97.2082L63.7352 97.2047C64.0726 97.0999 64.4101 96.9954 64.7484 96.9051C65.4266 96.724 66.0876 96.6063 66.7143 96.6601L66.7147 96.6602C67.122 96.6946 67.3484 96.941 67.4106 97.2191C67.4742 97.504 67.3701 97.8452 67.0471 98.0684L67.047 98.0685C66.5335 98.4239 65.8981 98.6496 65.2152 98.829C64.8748 98.9185 64.5278 98.9952 64.1815 99.0715L64.1646 99.0752C63.8259 99.1499 63.4873 99.2245 63.1658 99.3092L63.1655 99.3093C63.0033 99.3523 62.8411 99.3953 62.6789 99.4383C61.4977 99.7517 60.3184 100.064 59.1364 100.358" fill="#F48C7F" stroke="black" stroke-width="0.5"/>
<mask id="path-23-inside-1_1710_9560" fill="white">
<path d="M27.4768 120.155C28.4153 116.883 30.2399 115.47 31.5203 113.973C32.2075 113.174 31.4156 112.054 30.4318 112.487C27.735 113.673 26.0081 116.82 25.2615 119.531C24.8672 120.958 27.0651 121.582 27.4768 120.155Z"/>
</mask>
<path d="M27.4768 120.155C28.4153 116.883 30.2399 115.47 31.5203 113.973C32.2075 113.174 31.4156 112.054 30.4318 112.487C27.735 113.673 26.0081 116.82 25.2615 119.531C24.8672 120.958 27.0651 121.582 27.4768 120.155Z" fill="#F48C7F"/>
<path d="M31.5203 113.973L31.1403 113.648L31.1412 113.647L31.5203 113.973ZM30.4318 112.487L30.2305 112.029L30.2305 112.029L30.4318 112.487ZM25.2615 119.531L25.7435 119.663L25.7434 119.664L25.2615 119.531ZM26.9962 120.017C27.9735 116.609 29.9134 115.082 31.1403 113.648L31.9002 114.298C30.5664 115.857 28.857 117.156 27.9574 120.293L26.9962 120.017ZM31.1412 113.647C31.3289 113.429 31.3016 113.205 31.1972 113.061C31.0962 112.921 30.903 112.826 30.633 112.944L30.2305 112.029C30.9444 111.715 31.6391 111.964 32.0082 112.476C32.3739 112.982 32.3989 113.718 31.8993 114.299L31.1412 113.647ZM30.6331 112.944C28.1434 114.04 26.476 117.004 25.7435 119.663L24.7794 119.398C25.5401 116.636 27.3265 113.306 30.2305 112.029L30.6331 112.944ZM25.7434 119.664C25.6823 119.885 25.7253 120.042 25.8002 120.155C25.8824 120.279 26.026 120.382 26.2031 120.432C26.3802 120.482 26.5562 120.469 26.6908 120.407C26.8133 120.35 26.9323 120.239 26.9964 120.017L27.9572 120.294C27.8154 120.785 27.5053 121.131 27.1123 121.314C26.7313 121.491 26.3053 121.5 25.9308 121.394C25.5562 121.288 25.1985 121.057 24.9667 120.707C24.7275 120.346 24.6435 119.89 24.7795 119.398L25.7434 119.664Z" fill="black" mask="url(#path-23-inside-1_1710_9560)"/>
<mask id="path-25-inside-2_1710_9560" fill="white">
<path d="M44.8267 123.175C44.408 121.803 44.2615 120.39 44.4325 118.96C44.5371 118.088 45.5559 115.457 43.8708 115.457C42.2834 115.457 42.1229 118.109 42.0392 119.236C41.9276 120.743 42.1159 122.281 42.5695 123.722C43.016 125.139 45.2593 124.608 44.8267 123.175Z"/>
</mask>
<path d="M44.8267 123.175C44.408 121.803 44.2615 120.39 44.4325 118.96C44.5371 118.088 45.5559 115.457 43.8708 115.457C42.2834 115.457 42.1229 118.109 42.0392 119.236C41.9276 120.743 42.1159 122.281 42.5695 123.722C43.016 125.139 45.2593 124.608 44.8267 123.175Z" fill="#F48C7F"/>
<path d="M44.4325 118.96L43.936 118.901L43.936 118.9L44.4325 118.96ZM42.0392 119.236L41.5406 119.199L41.5406 119.199L42.0392 119.236ZM42.5695 123.722L42.0926 123.873L42.0925 123.872L42.5695 123.722ZM44.3485 123.321C43.911 121.888 43.7563 120.405 43.936 118.901L44.9289 119.019C44.7668 120.376 44.9051 121.719 45.3049 123.029L44.3485 123.321ZM43.936 118.9C43.9663 118.648 44.0608 118.275 44.1383 117.934C44.2216 117.567 44.2986 117.188 44.3242 116.844C44.3508 116.486 44.3141 116.25 44.2437 116.119C44.2143 116.064 44.1815 116.032 44.1411 116.01C44.0976 115.986 44.0167 115.957 43.8708 115.957V114.957C44.1462 114.957 44.402 115.011 44.6249 115.134C44.851 115.259 45.0142 115.44 45.1246 115.645C45.3339 116.035 45.3519 116.51 45.3214 116.919C45.2899 117.342 45.1979 117.784 45.1134 118.156C45.0231 118.553 44.951 118.836 44.9289 119.02L43.936 118.9ZM43.8708 115.957C43.6344 115.957 43.4564 116.048 43.2983 116.224C43.1272 116.414 42.9829 116.703 42.8687 117.072C42.6398 117.811 42.5807 118.695 42.5378 119.273L41.5406 119.199C41.5814 118.649 41.6445 117.644 41.9135 116.776C42.0484 116.341 42.2471 115.897 42.5551 115.555C42.8762 115.198 43.3135 114.957 43.8708 114.957V115.957ZM42.5378 119.273C42.431 120.714 42.6112 122.19 43.0464 123.572L42.0925 123.872C41.6206 122.373 41.4241 120.771 41.5406 119.199L42.5378 119.273ZM43.0463 123.572C43.1722 123.971 43.5397 124.12 43.9113 124.031C44.0941 123.987 44.2318 123.892 44.3063 123.782C44.3718 123.687 44.4156 123.543 44.348 123.319L45.3054 123.03C45.4541 123.523 45.3798 123.984 45.1323 124.346C44.8939 124.695 44.524 124.913 44.1442 125.004C43.3907 125.184 42.4133 124.89 42.0926 123.873L43.0463 123.572Z" fill="black" mask="url(#path-25-inside-2_1710_9560)"/>
<path d="M56.754 112.533L56.7543 112.533C56.9227 112.599 57.0942 112.674 57.2609 112.748C57.3192 112.773 57.3769 112.799 57.4337 112.823C57.6574 112.92 57.8734 113.008 58.0871 113.072C58.5113 113.198 58.9036 113.221 59.2918 113.03C59.6481 112.855 59.7383 112.417 59.568 111.995L59.568 111.994C59.4307 111.653 59.0904 111.413 58.626 111.214C58.3983 111.117 58.1545 111.036 57.9108 110.958C57.8714 110.945 57.8318 110.933 57.7922 110.92C57.5918 110.856 57.3921 110.793 57.2161 110.725C56.9658 110.629 56.7159 110.534 56.4663 110.438C55.8246 110.192 55.1845 109.947 54.5443 109.703L54.5439 109.703C54.3355 109.623 54.0941 109.66 53.875 109.791C53.6545 109.922 53.4865 110.132 53.4259 110.347L53.4257 110.348C53.2827 110.848 53.5756 111.296 54.0858 111.497C54.086 111.497 54.0862 111.497 54.0863 111.498L56.754 112.533Z" fill="#F48C7F" stroke="black" stroke-width="0.5"/>
<mask id="path-28-inside-3_1710_9560" fill="white">
<path d="M27.4975 89.2489C22.8436 83.1365 22.8924 83.0842 22.1668 82.6725C21.4237 82.2469 20.4468 82.9237 20.6701 83.782C20.8864 84.6263 20.8655 84.4832 25.7846 90.8992C26.1753 91.412 27.0405 91.3423 27.4661 90.9306C27.972 90.4421 27.8847 89.7653 27.4975 89.2489Z"/>
</mask>
<path d="M27.4975 89.2489C22.8436 83.1365 22.8924 83.0842 22.1668 82.6725C21.4237 82.2469 20.4468 82.9237 20.6701 83.782C20.8864 84.6263 20.8655 84.4832 25.7846 90.8992C26.1753 91.412 27.0405 91.3423 27.4661 90.9306C27.972 90.4421 27.8847 89.7653 27.4975 89.2489Z" fill="#F48C7F"/>
<path d="M22.1668 82.6725L21.92 83.1074L21.9182 83.1064L22.1668 82.6725ZM20.6701 83.782L21.154 83.6561L21.1545 83.6579L20.6701 83.782ZM25.7846 90.8992L26.1813 90.5949L26.1823 90.5961L25.7846 90.8992ZM27.4661 90.9306L27.1185 90.5712L27.1188 90.5709L27.4661 90.9306ZM27.0997 89.5518C24.7671 86.4883 23.6237 84.9574 22.968 84.1345C22.6395 83.7223 22.4517 83.5114 22.3108 83.3803C22.1831 83.2615 22.0896 83.2036 21.92 83.1074L22.4135 82.2376C22.6067 82.3473 22.7793 82.4503 22.9919 82.6481C23.1914 82.8336 23.4183 83.095 23.7501 83.5114C24.4148 84.3457 25.5739 85.8972 27.8953 88.946L27.0997 89.5518ZM21.9182 83.1064C21.7408 83.0048 21.5222 83.0259 21.3488 83.1511C21.1805 83.2726 21.102 83.4561 21.154 83.6561L20.1862 83.9079C20.015 83.2496 20.3132 82.6655 20.7633 82.3405C21.2082 82.0191 21.8496 81.9147 22.4153 82.2387L21.9182 83.1064ZM21.1545 83.6579C21.2074 83.8646 21.2356 83.9675 21.3138 84.12C21.3997 84.2879 21.5507 84.5225 21.8676 84.9563C22.4997 85.8218 23.7162 87.3796 26.1813 90.5949L25.3878 91.2034C22.9339 88.0028 21.7013 86.4241 21.06 85.5461C20.7401 85.1082 20.5484 84.8193 20.4237 84.576C20.2912 84.3173 20.241 84.1215 20.1858 83.9061L21.1545 83.6579ZM26.1823 90.5961C26.2562 90.6931 26.3981 90.7647 26.6047 90.7616C26.8149 90.7585 27.0098 90.6763 27.1185 90.5712L27.8137 91.29C27.4968 91.5965 27.0463 91.7551 26.6198 91.7615C26.1897 91.768 25.7037 91.618 25.3868 91.2022L26.1823 90.5961ZM27.1188 90.5709C27.3811 90.3176 27.3917 89.9413 27.0975 89.5489L27.8975 88.9489C28.3777 89.5893 28.5628 90.5667 27.8134 91.2903L27.1188 90.5709Z" fill="black" mask="url(#path-28-inside-3_1710_9560)"/>
<mask id="path-30-inside-4_1710_9560" fill="white">
<path d="M39.7329 85.9632C39.8794 84.7072 39.8934 83.4477 39.7713 82.1848C39.6562 81.016 39.6387 79.2053 38.3898 78.696C38.1211 78.5878 37.7025 78.6995 37.5176 78.9158C36.7326 79.8124 37.3327 81.2917 37.4304 82.3697C37.542 83.5489 37.5246 84.7421 37.4304 85.9213C37.3815 86.5423 37.9642 87.0796 38.5607 87.0936C39.234 87.1041 39.6597 86.5807 39.7329 85.9632Z"/>
</mask>
<path d="M39.7329 85.9632C39.8794 84.7072 39.8934 83.4477 39.7713 82.1848C39.6562 81.016 39.6387 79.2053 38.3898 78.696C38.1211 78.5878 37.7025 78.6995 37.5176 78.9158C36.7326 79.8124 37.3327 81.2917 37.4304 82.3697C37.542 83.5489 37.5246 84.7421 37.4304 85.9213C37.3815 86.5423 37.9642 87.0796 38.5607 87.0936C39.234 87.1041 39.6597 86.5807 39.7329 85.9632Z" fill="#F48C7F"/>
<path d="M39.7713 82.1848L40.2689 82.1358L40.269 82.1367L39.7713 82.1848ZM38.3898 78.696L38.5765 78.2322L38.5786 78.233L38.3898 78.696ZM37.5176 78.9158L37.8977 79.2407L37.8938 79.2452L37.5176 78.9158ZM37.4304 82.3697L36.9326 82.4169L36.9324 82.4148L37.4304 82.3697ZM37.4304 85.9213L36.9319 85.8821L36.932 85.8815L37.4304 85.9213ZM38.5607 87.0936L38.553 87.5936L38.549 87.5935L38.5607 87.0936ZM39.2363 85.9053C39.3787 84.6842 39.3923 83.4602 39.2736 82.2329L40.269 82.1367C40.3945 83.4353 40.3801 84.7303 40.2295 86.0211L39.2363 85.9053ZM39.2737 82.2338C39.2123 81.6098 39.1836 80.932 39.0223 80.3207C38.8627 79.7161 38.6089 79.3253 38.2009 79.159L38.5786 78.233C39.4196 78.576 39.799 79.3452 39.9892 80.0655C40.1776 80.7791 40.2152 81.591 40.2689 82.1358L39.2737 82.2338ZM38.203 79.1598C38.2037 79.1601 38.1897 79.1548 38.1577 79.1542C38.1265 79.1537 38.088 79.1579 38.0467 79.1685C38.0054 79.1791 37.9685 79.1942 37.9399 79.2104C37.9259 79.2183 37.9153 79.2256 37.908 79.2315C37.9005 79.2374 37.8976 79.2408 37.8977 79.2407L37.1375 78.5909C37.3152 78.383 37.5685 78.2588 37.7979 78.1999C38.027 78.1411 38.314 78.1265 38.5765 78.2322L38.203 79.1598ZM37.8938 79.2452C37.6434 79.5311 37.5801 79.9434 37.6403 80.523C37.6698 80.8069 37.7252 81.1 37.7836 81.4081C37.8403 81.7065 37.9013 82.0263 37.9283 82.3246L36.9324 82.4148C36.9106 82.1742 36.86 81.9047 36.8012 81.5945C36.7442 81.2941 36.6803 80.9593 36.6457 80.6264C36.5777 79.9728 36.6068 79.1971 37.1414 78.5865L37.8938 79.2452ZM37.9282 82.3226C38.0432 83.5376 38.0247 84.7608 37.9288 85.9611L36.932 85.8815C37.0245 84.7234 37.0409 83.5603 36.9326 82.4169L37.9282 82.3226ZM37.9288 85.9605C37.918 86.0981 37.9755 86.2502 38.1067 86.3812C38.24 86.5142 38.416 86.5901 38.5724 86.5937L38.549 87.5935C38.1089 87.5832 37.6953 87.3834 37.4003 87.089C37.1033 86.7926 36.8939 86.3655 36.9319 85.8821L37.9288 85.9605ZM38.5685 86.5937C38.9137 86.599 39.184 86.3456 39.2364 85.9043L40.2294 86.0221C40.1353 86.8159 39.5544 87.6091 38.553 87.5935L38.5685 86.5937Z" fill="black" mask="url(#path-30-inside-4_1710_9560)"/>
<mask id="path-32-inside-5_1710_9560" fill="white">
<path d="M57.3232 82.5547C57.3895 81.979 56.8383 81.5953 56.3429 81.5359C55.3207 81.4104 54.3403 82.628 53.6809 83.2908C52.9169 84.0619 52.2331 84.9027 51.6017 85.7888C51.2389 86.2982 51.504 87.0762 52.0099 87.3762C52.603 87.7286 53.217 87.4704 53.6007 86.9715C56.1021 83.7165 57.1697 83.9746 57.3232 82.5547Z"/>
</mask>
<path d="M57.3232 82.5547C57.3895 81.979 56.8383 81.5953 56.3429 81.5359C55.3207 81.4104 54.3403 82.628 53.6809 83.2908C52.9169 84.0619 52.2331 84.9027 51.6017 85.7888C51.2389 86.2982 51.504 87.0762 52.0099 87.3762C52.603 87.7286 53.217 87.4704 53.6007 86.9715C56.1021 83.7165 57.1697 83.9746 57.3232 82.5547Z" fill="#F48C7F"/>
<path d="M56.3429 81.5359L56.2834 82.0324L56.2819 82.0322L56.3429 81.5359ZM53.6809 83.2908L53.3258 82.9389L53.3265 82.9382L53.6809 83.2908ZM51.6017 85.7888L51.1944 85.4987L51.1945 85.4987L51.6017 85.7888ZM52.0099 87.3762L52.2649 86.9462L52.2653 86.9464L52.0099 87.3762ZM53.6007 86.9715L53.9972 87.2762L53.997 87.2764L53.6007 86.9715ZM56.8265 82.4975C56.8376 82.4006 56.8048 82.311 56.706 82.2204C56.5983 82.1218 56.4367 82.0507 56.2834 82.0324L56.4023 81.0395C56.7445 81.0805 57.1061 81.2309 57.3813 81.4829C57.6653 81.743 57.875 82.1331 57.8199 82.6118L56.8265 82.4975ZM56.2819 82.0322C55.9845 81.9957 55.6246 82.152 55.192 82.5051C54.763 82.8552 54.3985 83.2785 54.0354 83.6435L53.3265 82.9382C53.6228 82.6403 54.0781 82.1234 54.5597 81.7304C55.0376 81.3403 55.6791 80.9506 56.4038 81.0397L56.2819 82.0322ZM54.0361 83.6428C53.2949 84.3908 52.6282 85.2098 52.0089 86.079L51.1945 85.4987C51.8381 84.5955 52.5389 83.733 53.3258 82.9389L54.0361 83.6428ZM52.0089 86.0789C51.9356 86.1818 51.9079 86.3379 51.9609 86.5241C52.0148 86.7134 52.136 86.8697 52.2649 86.9462L51.7548 87.8063C51.3779 87.5827 51.1136 87.2 50.9991 86.7979C50.8838 86.3928 50.9049 85.9052 51.1944 85.4987L52.0089 86.0789ZM52.2653 86.9464C52.4395 87.0499 52.5961 87.0575 52.7398 87.0143C52.8956 86.9674 53.0626 86.851 53.2044 86.6667L53.997 87.2764C53.755 87.591 53.4232 87.8531 53.0277 87.9719C52.6202 88.0944 52.1734 88.055 51.7545 87.8061L52.2653 86.9464ZM53.2043 86.6669C54.4853 84.9999 55.4069 84.225 56.0146 83.6974C56.3221 83.4304 56.5007 83.2658 56.6209 83.0966C56.7258 82.9488 56.7956 82.7826 56.8261 82.5009L57.8203 82.6084C57.774 83.0367 57.6528 83.3707 57.4362 83.6756C57.2349 83.959 56.9614 84.1996 56.6702 84.4525C56.0804 84.9645 55.2176 85.6881 53.9972 87.2762L53.2043 86.6669Z" fill="black" mask="url(#path-32-inside-5_1710_9560)"/>
<mask id="path-34-inside-6_1710_9560" fill="white">
<path d="M80.327 128.729L71.7997 129.077L68.4476 137.324L58.8633 137.019L57.927 146.933L47.075 147.084L45.1172 156.103L34.6989 158L34 153.948L41.7895 152.531L43.8559 143.013L54.2874 142.871L55.2392 132.791L65.8141 133.124L69.0899 125.072L76.9901 124.749L78.0667 119L82 119.773L80.327 128.729Z"/>
</mask>
<path d="M80.327 128.729L71.7997 129.077L68.4476 137.324L58.8633 137.019L57.927 146.933L47.075 147.084L45.1172 156.103L34.6989 158L34 153.948L41.7895 152.531L43.8559 143.013L54.2874 142.871L55.2392 132.791L65.8141 133.124L69.0899 125.072L76.9901 124.749L78.0667 119L82 119.773L80.327 128.729Z" fill="#F7CC7F"/>
<path d="M71.7997 129.077L71.3365 128.889L71.4577 128.591L71.7793 128.578L71.7997 129.077ZM68.4476 137.324L68.9108 137.512L68.7797 137.834L68.4317 137.823L68.4476 137.324ZM58.8633 137.019L58.3655 136.972L58.4097 136.504L58.8792 136.519L58.8633 137.019ZM57.927 146.933L58.4248 146.98L58.3826 147.427L57.934 147.433L57.927 146.933ZM47.075 147.084L46.5864 146.978L46.6707 146.589L47.0681 146.584L47.075 147.084ZM45.1172 156.103L45.6059 156.209L45.5351 156.535L45.2068 156.595L45.1172 156.103ZM34.6989 158L34.7885 158.492L34.2919 158.582L34.2062 158.085L34.6989 158ZM34 153.948L33.5073 154.033L33.4231 153.544L33.9105 153.456L34 153.948ZM41.7895 152.531L42.2781 152.637L42.2073 152.963L41.879 153.023L41.7895 152.531ZM43.8559 143.013L43.3673 142.906L43.4516 142.518L43.8491 142.513L43.8559 143.013ZM54.2874 142.871L54.7852 142.918L54.743 143.365L54.2941 143.371L54.2874 142.871ZM55.2392 132.791L54.7414 132.744L54.7856 132.276L55.2549 132.291L55.2392 132.791ZM65.8141 133.124L66.2773 133.312L66.1462 133.634L65.7984 133.623L65.8141 133.124ZM69.0899 125.072L68.6267 124.884L68.748 124.586L69.0694 124.573L69.0899 125.072ZM76.9901 124.749L77.4816 124.841L77.4083 125.232L77.0106 125.248L76.9901 124.749ZM78.0667 119L77.5753 118.908L77.6681 118.412L78.1631 118.509L78.0667 119ZM82 119.773L82.0964 119.282L82.5825 119.378L82.4915 119.865L82 119.773ZM80.3474 129.228L71.8202 129.577L71.7793 128.578L80.3065 128.229L80.3474 129.228ZM72.2629 129.266L68.9108 137.512L67.9844 137.135L71.3365 128.889L72.2629 129.266ZM68.4317 137.823L58.8474 137.519L58.8792 136.519L68.4635 136.824L68.4317 137.823ZM59.3611 137.066L58.4248 146.98L57.4293 146.886L58.3655 136.972L59.3611 137.066ZM57.934 147.433L47.082 147.584L47.0681 146.584L57.9201 146.433L57.934 147.433ZM47.5636 147.19L45.6059 156.209L44.6286 155.997L46.5864 146.978L47.5636 147.19ZM45.2068 156.595L34.7885 158.492L34.6093 157.508L45.0277 155.611L45.2068 156.595ZM34.2062 158.085L33.5073 154.033L34.4927 153.863L35.1916 157.915L34.2062 158.085ZM33.9105 153.456L41.7 152.039L41.879 153.023L34.0895 154.44L33.9105 153.456ZM41.3009 152.425L43.3673 142.906L44.3445 143.119L42.2781 152.637L41.3009 152.425ZM43.8491 142.513L54.2806 142.371L54.2941 143.371L43.8627 143.513L43.8491 142.513ZM53.7896 142.824L54.7414 132.744L55.737 132.838L54.7852 142.918L53.7896 142.824ZM55.2549 132.291L65.8299 132.624L65.7984 133.623L55.2235 133.29L55.2549 132.291ZM65.351 132.935L68.6267 124.884L69.553 125.261L66.2773 133.312L65.351 132.935ZM69.0694 124.573L76.9696 124.249L77.0106 125.248L69.1103 125.572L69.0694 124.573ZM76.4986 124.657L77.5753 118.908L78.5582 119.092L77.4816 124.841L76.4986 124.657ZM78.1631 118.509L82.0964 119.282L81.9036 120.263L77.9703 119.491L78.1631 118.509ZM82.4915 119.865L80.8185 128.821L79.8355 128.637L81.5085 119.681L82.4915 119.865Z" fill="black" mask="url(#path-34-inside-6_1710_9560)"/>
<path d="M234.092 150.518L246.633 141.966C246.582 141.905 246.52 141.83 246.447 141.744C246.211 141.464 245.864 141.059 245.417 140.558C244.523 139.555 243.234 138.169 241.65 136.636C238.479 133.567 234.141 129.918 229.452 127.57C224.771 125.227 219.917 124.466 216.229 124.292C214.385 124.206 212.835 124.266 211.747 124.348C211.425 124.372 211.142 124.398 210.905 124.423C222.994 130.016 228.803 136.557 231.581 141.765C232.999 144.424 233.624 146.73 233.894 148.375C234.029 149.198 234.076 149.855 234.088 150.309C234.09 150.384 234.091 150.454 234.092 150.518Z" fill="#FAE0B2" stroke="black" stroke-width="0.5"/>
<mask id="path-37-inside-7_1710_9560" fill="white">
<path d="M205.058 132.226L203.357 123.676L209.645 117.468C210.361 116.762 209.931 115.564 208.918 115.44L200.019 114.37L195.883 106.645C195.412 105.765 194.106 105.791 193.674 106.69L189.875 114.578L181.031 116.01C180.023 116.173 179.646 117.389 180.392 118.064L186.943 124.011L185.613 132.624C185.461 133.605 186.534 134.328 187.428 133.848L195.275 129.634L203.298 133.523C204.211 133.966 205.251 133.202 205.058 132.226Z"/>
</mask>
<path d="M205.058 132.226L203.357 123.676L209.645 117.468C210.361 116.762 209.931 115.564 208.918 115.44L200.019 114.37L195.883 106.645C195.412 105.765 194.106 105.791 193.674 106.69L189.875 114.578L181.031 116.01C180.023 116.173 179.646 117.389 180.392 118.064L186.943 124.011L185.613 132.624C185.461 133.605 186.534 134.328 187.428 133.848L195.275 129.634L203.298 133.523C204.211 133.966 205.251 133.202 205.058 132.226Z" fill="#F7CC7F"/>
<path d="M203.357 123.676L202.866 123.774L202.814 123.51L203.005 123.32L203.357 123.676ZM209.645 117.468L209.293 117.113L209.293 117.112L209.645 117.468ZM208.918 115.44L208.977 114.944L208.978 114.944L208.918 115.44ZM200.019 114.37L199.96 114.866L199.701 114.835L199.579 114.606L200.019 114.37ZM195.883 106.645L195.442 106.881L195.442 106.881L195.883 106.645ZM193.674 106.69L194.124 106.907L194.124 106.907L193.674 106.69ZM189.875 114.578L190.326 114.795L190.212 115.03L189.955 115.072L189.875 114.578ZM181.031 116.01L180.951 115.516L180.951 115.516L181.031 116.01ZM180.392 118.064L180.728 117.694L180.728 117.694L180.392 118.064ZM186.943 124.011L187.279 123.641L187.478 123.822L187.437 124.087L186.943 124.011ZM185.613 132.624L186.107 132.7L186.107 132.701L185.613 132.624ZM187.428 133.848L187.665 134.288L187.664 134.288L187.428 133.848ZM195.275 129.634L195.039 129.193L195.264 129.072L195.493 129.184L195.275 129.634ZM203.298 133.523L203.516 133.073V133.074L203.298 133.523ZM204.567 132.323L202.866 123.774L203.847 123.579L205.548 132.128L204.567 132.323ZM203.005 123.32L209.293 117.113L209.996 117.824L203.708 124.032L203.005 123.32ZM209.293 117.112C209.695 116.716 209.48 116.013 208.857 115.937L208.978 114.944C210.383 115.116 211.027 116.807 209.996 117.824L209.293 117.112ZM208.858 115.937L199.96 114.866L200.079 113.873L208.977 114.944L208.858 115.937ZM199.579 114.606L195.442 106.881L196.324 106.409L200.46 114.134L199.579 114.606ZM195.442 106.881C195.163 106.36 194.379 106.378 194.124 106.907L193.223 106.473C193.834 105.204 195.661 105.169 196.324 106.41L195.442 106.881ZM194.124 106.907L190.326 114.795L189.425 114.361L193.223 106.473L194.124 106.907ZM189.955 115.072L181.111 116.504L180.951 115.516L189.795 114.084L189.955 115.072ZM181.111 116.504C180.496 116.603 180.308 117.314 180.728 117.694L180.057 118.435C178.984 117.464 179.551 115.744 180.951 115.516L181.111 116.504ZM180.728 117.694L187.279 123.641L186.607 124.381L180.056 118.435L180.728 117.694ZM187.437 124.087L186.107 132.7L185.119 132.548L186.449 123.935L187.437 124.087ZM186.107 132.701C186.024 133.241 186.631 133.708 187.191 133.407L187.664 134.288C186.437 134.947 184.899 133.97 185.119 132.548L186.107 132.701ZM187.191 133.407L195.039 129.193L195.512 130.074L187.665 134.288L187.191 133.407ZM195.493 129.184L203.516 133.073L203.08 133.973L195.057 130.083L195.493 129.184ZM203.516 133.074C204.089 133.351 204.674 132.861 204.567 132.323L205.548 132.129C205.829 133.543 204.334 134.582 203.08 133.973L203.516 133.074Z" fill="black" mask="url(#path-37-inside-7_1710_9560)"/>
<mask id="path-39-inside-8_1710_9560" fill="white">
<path d="M222.902 37L219.507 45.3421L205.258 41.4462L198.763 53.0406L187.619 51.8418L187 57.3934L201.908 59L208.064 48.0098L222.882 52.0629L228 39.5105L222.902 37Z"/>
</mask>
<path d="M222.902 37L219.507 45.3421L205.258 41.4462L198.763 53.0406L187.619 51.8418L187 57.3934L201.908 59L208.064 48.0098L222.882 52.0629L228 39.5105L222.902 37Z" fill="#F48C7F"/>
<path d="M219.507 45.3421L219.971 45.5306L219.803 45.9414L219.376 45.8244L219.507 45.3421ZM205.258 41.4462L204.822 41.2018L205.013 40.8608L205.39 40.9639L205.258 41.4462ZM198.763 53.0406L199.199 53.285L199.038 53.5731L198.709 53.5377L198.763 53.0406ZM187.619 51.8418L187.122 51.7864L187.177 51.2914L187.673 51.3447L187.619 51.8418ZM187 57.3934L186.946 57.8905L186.447 57.8368L186.503 57.338L187 57.3934ZM201.908 59L202.344 59.2443L202.183 59.5325L201.855 59.4971L201.908 59ZM208.064 48.0098L207.628 47.7654L207.819 47.4244L208.196 47.5275L208.064 48.0098ZM222.882 52.0629L223.345 52.2517L223.178 52.6622L222.751 52.5452L222.882 52.0629ZM228 39.5105L228.221 39.0619L228.639 39.2678L228.463 39.6992L228 39.5105ZM223.366 37.1885L219.971 45.5306L219.044 45.1537L222.439 36.8115L223.366 37.1885ZM219.376 45.8244L205.126 41.9285L205.39 40.9639L219.639 44.8598L219.376 45.8244ZM205.694 41.6905L199.199 53.285L198.327 52.7962L204.822 41.2018L205.694 41.6905ZM198.709 53.5377L187.566 52.339L187.673 51.3447L198.816 52.5435L198.709 53.5377ZM188.116 51.8973L187.497 57.4488L186.503 57.338L187.122 51.7864L188.116 51.8973ZM187.054 56.8963L201.962 58.5029L201.855 59.4971L186.946 57.8905L187.054 56.8963ZM201.472 58.7557L207.628 47.7654L208.5 48.2541L202.344 59.2443L201.472 58.7557ZM208.196 47.5275L223.014 51.5806L222.751 52.5452L207.932 48.4921L208.196 47.5275ZM222.419 51.8742L227.537 39.3217L228.463 39.6992L223.345 52.2517L222.419 51.8742ZM227.779 39.959L222.682 37.4486L223.123 36.5514L228.221 39.0619L227.779 39.959Z" fill="black" mask="url(#path-39-inside-8_1710_9560)"/>
<path d="M215.841 94.194L215.841 94.194L247.587 100.599C251.198 101.328 254.714 98.9924 255.442 95.3823L259.05 77.5053C259.778 73.8951 257.441 70.3786 253.833 69.6504L222.087 63.245C218.477 62.5167 214.96 64.852 214.232 68.4621L213.987 68.4127L214.232 68.4621L210.624 86.3391L210.379 86.2896L210.624 86.3391C209.896 89.9473 212.231 93.4658 215.841 94.194Z" fill="#FAE0B2" stroke="black" stroke-width="0.5"/>
<path d="M214.416 88.5098L213.394 77.9213L198.19 88.3958L214.416 88.5098Z" fill="#FAE0B2" stroke="black" stroke-width="0.5"/>
<mask id="path-43-inside-9_1710_9560" fill="white">
<path d="M226.185 77.8998L230.271 78.6169C230.271 78.6169 236.145 75.7809 236.567 74.456C236.986 73.1332 236.7 70.1028 237.565 69.8982C238.432 69.6936 240.172 69.7361 240.889 71.7355C241.41 73.1859 239.844 77.8147 240.261 78.2239C240.523 78.4811 242.86 78.9592 244.572 79.2813C245.698 79.494 246.612 80.3124 246.948 81.4083V81.4124C247.175 82.1538 246.851 82.9519 246.172 83.3267L245.117 83.908L245.648 84.9979C246.043 85.8082 245.71 86.7846 244.902 87.1856L244.08 87.5928L244.461 88.2471C244.955 89.0898 244.606 90.1736 243.713 90.5726L242.99 90.8947L243.051 91.0892C243.306 91.8995 242.901 92.7726 242.115 93.0967L241.394 93.3965L230.51 91.4862C229.491 91.3059 228.519 90.9211 227.654 90.3518L223.937 89.0473C223.538 88.9075 223.301 88.4963 223.382 88.079L225.199 78.5824C225.286 78.1226 225.725 77.8187 226.185 77.8998Z"/>
</mask>
<path d="M226.185 77.8998L230.271 78.6169C230.271 78.6169 236.145 75.7809 236.567 74.456C236.986 73.1332 236.7 70.1028 237.565 69.8982C238.432 69.6936 240.172 69.7361 240.889 71.7355C241.41 73.1859 239.844 77.8147 240.261 78.2239C240.523 78.4811 242.86 78.9592 244.572 79.2813C245.698 79.494 246.612 80.3124 246.948 81.4083V81.4124C247.175 82.1538 246.851 82.9519 246.172 83.3267L245.117 83.908L245.648 84.9979C246.043 85.8082 245.71 86.7846 244.902 87.1856L244.08 87.5928L244.461 88.2471C244.955 89.0898 244.606 90.1736 243.713 90.5726L242.99 90.8947L243.051 91.0892C243.306 91.8995 242.901 92.7726 242.115 93.0967L241.394 93.3965L230.51 91.4862C229.491 91.3059 228.519 90.9211 227.654 90.3518L223.937 89.0473C223.538 88.9075 223.301 88.4963 223.382 88.079L225.199 78.5824C225.286 78.1226 225.725 77.8187 226.185 77.8998Z" fill="white"/>
<path d="M230.271 78.6169L230.488 79.0671L230.343 79.1372L230.184 79.1093L230.271 78.6169ZM236.567 74.456L237.043 74.6071L237.043 74.6076L236.567 74.456ZM237.565 69.8982L237.45 69.4116L237.45 69.4115L237.565 69.8982ZM240.889 71.7355L240.419 71.9044L240.419 71.9043L240.889 71.7355ZM240.261 78.2239L240.611 77.8669L240.612 77.8676L240.261 78.2239ZM244.572 79.2813L244.664 78.7899L244.665 78.79L244.572 79.2813ZM246.948 81.4083L247.426 81.2616L247.448 81.3333V81.4083H246.948ZM246.948 81.4124L246.47 81.5587L246.448 81.4871V81.4124H246.948ZM246.172 83.3267L246.414 83.7643L246.414 83.7646L246.172 83.3267ZM245.117 83.908L244.667 84.1269L244.459 83.6995L244.876 83.4701L245.117 83.908ZM245.648 84.9979L245.198 85.217L245.198 85.2168L245.648 84.9979ZM244.902 87.1856L245.124 87.6335L245.124 87.6337L244.902 87.1856ZM244.08 87.5928L243.648 87.8443L243.379 87.382L243.858 87.1447L244.08 87.5928ZM244.461 88.2471L244.029 88.5001L244.028 88.4986L244.461 88.2471ZM243.713 90.5726L243.917 91.0292L243.917 91.0294L243.713 90.5726ZM242.99 90.8947L242.513 91.0439L242.38 90.6191L242.787 90.438L242.99 90.8947ZM243.051 91.0892L242.574 91.2394L242.574 91.2383L243.051 91.0892ZM242.115 93.0967L241.923 92.635L241.924 92.6344L242.115 93.0967ZM241.394 93.3965L241.586 93.8582L241.451 93.9142L241.307 93.889L241.394 93.3965ZM230.51 91.4862L230.423 91.9787L230.423 91.9786L230.51 91.4862ZM227.654 90.3518L227.819 89.88L227.877 89.9004L227.929 89.9342L227.654 90.3518ZM223.937 89.0473L224.102 88.5754L224.102 88.5755L223.937 89.0473ZM223.382 88.079L223.873 88.1729L223.872 88.1743L223.382 88.079ZM225.199 78.5824L225.69 78.6755L225.69 78.6764L225.199 78.5824ZM226.272 77.4073L230.357 78.1244L230.184 79.1093L226.099 78.3922L226.272 77.4073ZM230.271 78.6169C230.053 78.1666 230.053 78.1666 230.053 78.1666C230.053 78.1666 230.054 78.1666 230.054 78.1665C230.054 78.1665 230.054 78.1664 230.054 78.1662C230.055 78.1659 230.056 78.1654 230.057 78.1648C230.06 78.1635 230.064 78.1616 230.069 78.159C230.08 78.1537 230.096 78.1459 230.117 78.1355C230.16 78.1148 230.222 78.0842 230.302 78.0446C230.461 77.9653 230.69 77.8504 230.967 77.7084C231.52 77.424 232.26 77.032 233.012 76.5998C233.766 76.1663 234.52 75.6987 235.107 75.2634C235.401 75.0454 235.643 74.8433 235.819 74.6646C236.005 74.4751 236.074 74.3548 236.09 74.3045L237.043 74.6076C236.954 74.8885 236.747 75.1466 236.532 75.3658C236.305 75.5958 236.019 75.8326 235.703 76.0667C235.07 76.5358 234.277 77.0257 233.51 77.4667C232.74 77.9092 231.986 78.3089 231.424 78.5977C231.143 78.7422 230.91 78.8593 230.746 78.9403C230.665 78.9808 230.601 79.0124 230.557 79.0338C230.535 79.0446 230.518 79.0528 230.506 79.0584C230.5 79.0612 230.496 79.0634 230.493 79.0648C230.492 79.0655 230.49 79.0661 230.49 79.0665C230.489 79.0667 230.489 79.0668 230.489 79.0669C230.488 79.067 230.488 79.067 230.488 79.0671C230.488 79.0671 230.488 79.0671 230.271 78.6169ZM236.09 74.305C236.177 74.0289 236.235 73.6375 236.28 73.1665C236.303 72.9354 236.321 72.6945 236.34 72.4481C236.359 72.2035 236.378 71.9531 236.401 71.711C236.446 71.235 236.507 70.7514 236.625 70.3652C236.684 70.1716 236.765 69.9733 236.886 69.8059C237.01 69.6336 237.193 69.4723 237.45 69.4116L237.68 70.3848C237.721 70.3752 237.724 70.3534 237.697 70.3911C237.666 70.4338 237.624 70.5162 237.582 70.6561C237.496 70.937 237.441 71.332 237.397 71.8046C237.375 72.0367 237.356 72.2781 237.337 72.525C237.318 72.7701 237.299 73.0204 237.276 73.2626C237.23 73.7383 237.165 74.2218 237.043 74.6071L236.09 74.305ZM237.45 69.4115C237.951 69.2934 238.708 69.2433 239.458 69.5216C240.23 69.8085 240.952 70.4298 241.36 71.5667L240.419 71.9043C240.109 71.0418 239.603 70.6421 239.109 70.4591C238.593 70.2675 238.047 70.2983 237.68 70.3848L237.45 69.4115ZM241.36 71.5666C241.532 72.0467 241.517 72.7107 241.449 73.3554C241.38 74.0245 241.242 74.7714 241.105 75.4669C240.965 76.1739 240.829 76.8174 240.751 77.3183C240.712 77.5692 240.691 77.7607 240.69 77.8926C240.689 77.9591 240.694 77.9913 240.695 77.9995C240.699 78.0188 240.691 77.9444 240.611 77.8669L239.911 78.5809C239.78 78.4522 239.735 78.2937 239.715 78.1995C239.694 78.0942 239.689 77.9836 239.69 77.8816C239.692 77.6763 239.722 77.4278 239.763 77.1645C239.845 76.6371 239.989 75.956 240.124 75.2733C240.261 74.5793 240.39 73.8715 240.455 73.2519C240.522 72.608 240.507 72.1496 240.419 71.9044L241.36 71.5666ZM240.612 77.8676C240.569 77.8248 240.551 77.8299 240.643 77.8682C240.714 77.8976 240.816 77.9332 240.95 77.974C241.217 78.0551 241.574 78.1461 241.985 78.2411C242.806 78.4307 243.811 78.6292 244.664 78.7899L244.48 79.7727C243.622 79.6113 242.601 79.4097 241.76 79.2155C241.341 79.1185 240.958 79.0216 240.659 78.9307C240.51 78.8854 240.373 78.8389 240.26 78.7917C240.167 78.7534 240.019 78.6872 239.911 78.5802L240.612 77.8676ZM244.665 78.79C245.974 79.0372 247.036 79.9885 247.426 81.2616L246.47 81.555C246.188 80.6363 245.423 79.9508 244.479 79.7726L244.665 78.79ZM247.448 81.4083V81.4124H246.448V81.4083H247.448ZM247.426 81.2661C247.722 82.2341 247.299 83.2756 246.414 83.7643L245.931 82.889C246.403 82.6282 246.628 82.0735 246.47 81.5587L247.426 81.2661ZM246.414 83.7646L245.358 84.346L244.876 83.4701L245.931 82.8887L246.414 83.7646ZM245.566 83.6891L246.097 84.779L245.198 85.2168L244.667 84.1269L245.566 83.6891ZM246.097 84.7788C246.612 85.836 246.179 87.1103 245.124 87.6335L244.68 86.7378C245.242 86.4588 245.473 85.7803 245.198 85.217L246.097 84.7788ZM245.124 87.6337L244.302 88.0409L243.858 87.1447L244.68 86.7376L245.124 87.6337ZM244.512 87.3413L244.893 87.9956L244.028 88.4986L243.648 87.8443L244.512 87.3413ZM244.892 87.9941C245.537 89.0946 245.082 90.5089 243.917 91.0292L243.509 90.1161C244.131 89.8382 244.372 89.085 244.029 88.5001L244.892 87.9941ZM243.917 91.0294L243.193 91.3515L242.787 90.438L243.51 90.1159L243.917 91.0294ZM243.467 90.7456L243.528 90.9401L242.574 91.2383L242.513 91.0439L243.467 90.7456ZM243.528 90.939C243.86 91.9954 243.333 93.1353 242.305 93.5589L241.924 92.6344C242.469 92.4098 242.752 91.8035 242.574 91.2394L243.528 90.939ZM242.307 93.5584L241.586 93.8582L241.202 92.9348L241.923 92.635L242.307 93.5584ZM241.307 93.889L230.423 91.9787L230.596 90.9938L241.48 92.904L241.307 93.889ZM230.423 91.9786C229.337 91.7865 228.301 91.3764 227.379 90.7695L227.929 89.9342C228.736 90.4657 229.645 90.8254 230.597 90.9939L230.423 91.9786ZM227.488 90.8236L223.771 89.5191L224.102 88.5755L227.819 89.88L227.488 90.8236ZM223.771 89.5192C223.138 89.2974 222.762 88.6448 222.891 87.9837L223.872 88.1743C223.839 88.3478 223.937 88.5176 224.102 88.5754L223.771 89.5192ZM222.89 87.985L224.707 78.4885L225.69 78.6764L223.873 88.1729L222.89 87.985ZM224.707 78.4894C224.845 77.7612 225.542 77.2787 226.272 77.4073L226.098 78.3922C225.909 78.3587 225.726 78.484 225.69 78.6755L224.707 78.4894Z" fill="black" mask="url(#path-43-inside-9_1710_9560)"/>
<mask id="path-45-inside-10_1710_9560" fill="white">
<path d="M68.8256 60.3187L56.5522 63.1569L49.8093 43.9189L31.3582 45.8579L23.9521 32.2817L17.083 36.0319L26.9871 54.1835L44.4712 52.3509L51.4876 72.3592L69.9508 68.0915L68.8256 60.3187Z"/>
</mask>
<path d="M68.8256 60.3187L56.5522 63.1569L49.8093 43.9189L31.3582 45.8579L23.9521 32.2817L17.083 36.0319L26.9871 54.1835L44.4712 52.3509L51.4876 72.3592L69.9508 68.0915L68.8256 60.3187Z" fill="#F7CC7F"/>
<path d="M56.5522 63.1569L56.6648 63.6441L56.2285 63.745L56.0803 63.3223L56.5522 63.1569ZM49.8093 43.9189L49.7571 43.4216L50.1504 43.3803L50.2812 43.7535L49.8093 43.9189ZM31.3582 45.8579L31.4104 46.3552L31.0789 46.39L30.9192 46.0974L31.3582 45.8579ZM23.9521 32.2817L23.7125 31.8429L24.1515 31.6032L24.3911 32.0423L23.9521 32.2817ZM17.083 36.0319L16.6441 36.2714L16.4046 35.8325L16.8434 35.593L17.083 36.0319ZM26.9871 54.1835L27.0392 54.6808L26.7078 54.7155L26.5482 54.423L26.9871 54.1835ZM44.4712 52.3509L44.4191 51.8536L44.8123 51.8124L44.9431 52.1854L44.4712 52.3509ZM51.4876 72.3592L51.6002 72.8463L51.164 72.9472L51.0158 72.5246L51.4876 72.3592ZM69.9508 68.0915L70.4456 68.0199L70.5115 68.4751L70.0634 68.5787L69.9508 68.0915ZM68.9382 60.8058L56.6648 63.6441L56.4395 62.6698L68.7129 59.8315L68.9382 60.8058ZM56.0803 63.3223L49.3375 44.0842L50.2812 43.7535L57.024 62.9915L56.0803 63.3223ZM49.8616 44.4161L31.4104 46.3552L31.3059 45.3607L49.7571 43.4216L49.8616 44.4161ZM30.9192 46.0974L23.5132 32.5212L24.3911 32.0423L31.7971 45.6185L30.9192 46.0974ZM24.1917 32.7206L17.3226 36.4707L16.8434 35.593L23.7125 31.8429L24.1917 32.7206ZM17.5219 35.7924L27.426 53.944L26.5482 54.423L16.6441 36.2714L17.5219 35.7924ZM26.935 53.6862L44.4191 51.8536L44.5234 52.8482L27.0392 54.6808L26.935 53.6862ZM44.9431 52.1854L51.9595 72.1937L51.0158 72.5246L43.9994 52.5164L44.9431 52.1854ZM51.375 71.872L69.8382 67.6044L70.0634 68.5787L51.6002 72.8463L51.375 71.872ZM69.4559 68.1632L68.3307 60.3903L69.3204 60.247L70.4456 68.0199L69.4559 68.1632Z" fill="black" mask="url(#path-45-inside-10_1710_9560)"/>
<path d="M8.50267 75.75C13.0595 75.75 16.75 72.0546 16.75 67.4974C16.75 62.9404 13.0597 59.25 8.50267 59.25C3.94544 59.25 0.25 62.9406 0.25 67.4974C0.25 72.0544 3.94564 75.75 8.50267 75.75Z" fill="#50BFA5" stroke="black" stroke-width="0.5"/>
<path d="M255.503 125.75C260.059 125.75 263.75 122.055 263.75 117.497C263.75 112.94 260.06 109.25 255.503 109.25C250.945 109.25 247.25 112.941 247.25 117.497C247.25 122.054 250.946 125.75 255.503 125.75Z" fill="#50BFA5" stroke="black" stroke-width="0.5"/>
<path d="M72.5003 41.75C74.8232 41.75 76.75 39.6528 76.75 37.0036C76.75 34.3539 74.8227 32.25 72.5003 32.25C70.1773 32.25 68.25 34.354 68.25 37.0036C68.25 39.6528 70.1768 41.75 72.5003 41.75Z" fill="#9BC1F9" stroke="black" stroke-width="0.5"/>
<path d="M95.404 11.09C95.08 10.466 94.63 9.998 94.054 9.686C93.478 9.362 92.812 9.2 92.056 9.2C91.228 9.2 90.49 9.386 89.842 9.758C89.194 10.13 88.684 10.658 88.312 11.342C87.952 12.026 87.772 12.818 87.772 13.718C87.772 14.618 87.952 15.416 88.312 16.112C88.684 16.796 89.194 17.324 89.842 17.696C90.49 18.068 91.228 18.254 92.056 18.254C93.172 18.254 94.078 17.942 94.774 17.318C95.47 16.694 95.896 15.848 96.052 14.78H91.354V13.142H98.248V14.744C98.116 15.716 97.768 16.61 97.204 17.426C96.652 18.242 95.926 18.896 95.026 19.388C94.138 19.868 93.148 20.108 92.056 20.108C90.88 20.108 89.806 19.838 88.834 19.298C87.862 18.746 87.088 17.984 86.512 17.012C85.948 16.04 85.666 14.942 85.666 13.718C85.666 12.494 85.948 11.396 86.512 10.424C87.088 9.452 87.862 8.696 88.834 8.156C89.818 7.604 90.892 7.328 92.056 7.328C93.388 7.328 94.57 7.658 95.602 8.318C96.646 8.966 97.402 9.89 97.87 11.09H95.404ZM104.574 20.162C103.638 20.162 102.792 19.952 102.036 19.532C101.28 19.1 100.686 18.5 100.254 17.732C99.8219 16.952 99.6059 16.052 99.6059 15.032C99.6059 14.024 99.8279 13.13 100.272 12.35C100.716 11.57 101.322 10.97 102.09 10.55C102.858 10.13 103.716 9.92 104.664 9.92C105.612 9.92 106.47 10.13 107.238 10.55C108.006 10.97 108.612 11.57 109.056 12.35C109.5 13.13 109.722 14.024 109.722 15.032C109.722 16.04 109.494 16.934 109.038 17.714C108.582 18.494 107.958 19.1 107.166 19.532C106.386 19.952 105.522 20.162 104.574 20.162ZM104.574 18.38C105.102 18.38 105.594 18.254 106.05 18.002C106.518 17.75 106.896 17.372 107.184 16.868C107.472 16.364 107.616 15.752 107.616 15.032C107.616 14.312 107.478 13.706 107.202 13.214C106.926 12.71 106.56 12.332 106.104 12.08C105.648 11.828 105.156 11.702 104.628 11.702C104.1 11.702 103.608 11.828 103.152 12.08C102.708 12.332 102.354 12.71 102.09 13.214C101.826 13.706 101.694 14.312 101.694 15.032C101.694 16.1 101.964 16.928 102.504 17.516C103.056 18.092 103.746 18.38 104.574 18.38ZM116.052 20.162C115.116 20.162 114.27 19.952 113.514 19.532C112.758 19.1 112.164 18.5 111.732 17.732C111.3 16.952 111.084 16.052 111.084 15.032C111.084 14.024 111.306 13.13 111.75 12.35C112.194 11.57 112.8 10.97 113.568 10.55C114.336 10.13 115.194 9.92 116.142 9.92C117.09 9.92 117.948 10.13 118.716 10.55C119.484 10.97 120.09 11.57 120.534 12.35C120.978 13.13 121.2 14.024 121.2 15.032C121.2 16.04 120.972 16.934 120.516 17.714C120.06 18.494 119.436 19.1 118.644 19.532C117.864 19.952 117 20.162 116.052 20.162ZM116.052 18.38C116.58 18.38 117.072 18.254 117.528 18.002C117.996 17.75 118.374 17.372 118.662 16.868C118.95 16.364 119.094 15.752 119.094 15.032C119.094 14.312 118.956 13.706 118.68 13.214C118.404 12.71 118.038 12.332 117.582 12.08C117.126 11.828 116.634 11.702 116.106 11.702C115.578 11.702 115.086 11.828 114.63 12.08C114.186 12.332 113.832 12.71 113.568 13.214C113.304 13.706 113.172 14.312 113.172 15.032C113.172 16.1 113.442 16.928 113.982 17.516C114.534 18.092 115.224 18.38 116.052 18.38ZM122.545 14.996C122.545 14 122.749 13.118 123.157 12.35C123.577 11.582 124.141 10.988 124.849 10.568C125.569 10.136 126.367 9.92 127.243 9.92C127.891 9.92 128.527 10.064 129.151 10.352C129.787 10.628 130.291 11 130.663 11.468V6.68H132.733V20H130.663V18.506C130.327 18.986 129.859 19.382 129.259 19.694C128.671 20.006 127.993 20.162 127.225 20.162C126.361 20.162 125.569 19.946 124.849 19.514C124.141 19.07 123.577 18.458 123.157 17.678C122.749 16.886 122.545 15.992 122.545 14.996ZM130.663 15.032C130.663 14.348 130.519 13.754 130.231 13.25C129.955 12.746 129.589 12.362 129.133 12.098C128.677 11.834 128.185 11.702 127.657 11.702C127.129 11.702 126.637 11.834 126.181 12.098C125.725 12.35 125.353 12.728 125.065 13.232C124.789 13.724 124.651 14.312 124.651 14.996C124.651 15.68 124.789 16.28 125.065 16.796C125.353 17.312 125.725 17.708 126.181 17.984C126.649 18.248 127.141 18.38 127.657 18.38C128.185 18.38 128.677 18.248 129.133 17.984C129.589 17.72 129.955 17.336 130.231 16.832C130.519 16.316 130.663 15.716 130.663 15.032ZM146.926 7.49V16.508C146.926 17.624 146.584 18.506 145.9 19.154C145.228 19.802 144.34 20.126 143.236 20.126C142.132 20.126 141.238 19.802 140.554 19.154C139.882 18.506 139.546 17.624 139.546 16.508H141.616C141.628 17.06 141.766 17.498 142.03 17.822C142.306 18.146 142.708 18.308 143.236 18.308C143.764 18.308 144.166 18.146 144.442 17.822C144.718 17.486 144.856 17.048 144.856 16.508V7.49H146.926ZM154.566 20.162C153.63 20.162 152.784 19.952 152.028 19.532C151.272 19.1 150.678 18.5 150.246 17.732C149.814 16.952 149.598 16.052 149.598 15.032C149.598 14.024 149.82 13.13 150.264 12.35C150.708 11.57 151.314 10.97 152.082 10.55C152.85 10.13 153.708 9.92 154.656 9.92C155.604 9.92 156.462 10.13 157.23 10.55C157.998 10.97 158.604 11.57 159.048 12.35C159.492 13.13 159.714 14.024 159.714 15.032C159.714 16.04 159.486 16.934 159.03 17.714C158.574 18.494 157.95 19.1 157.158 19.532C156.378 19.952 155.514 20.162 154.566 20.162ZM154.566 18.38C155.094 18.38 155.586 18.254 156.042 18.002C156.51 17.75 156.888 17.372 157.176 16.868C157.464 16.364 157.608 15.752 157.608 15.032C157.608 14.312 157.47 13.706 157.194 13.214C156.918 12.71 156.552 12.332 156.096 12.08C155.64 11.828 155.148 11.702 154.62 11.702C154.092 11.702 153.6 11.828 153.144 12.08C152.7 12.332 152.346 12.71 152.082 13.214C151.818 13.706 151.686 14.312 151.686 15.032C151.686 16.1 151.956 16.928 152.496 17.516C153.048 18.092 153.738 18.38 154.566 18.38ZM163.795 11.558C164.143 11.078 164.617 10.688 165.217 10.388C165.829 10.076 166.507 9.92 167.251 9.92C168.127 9.92 168.919 10.13 169.627 10.55C170.335 10.97 170.893 11.57 171.301 12.35C171.709 13.118 171.913 14 171.913 14.996C171.913 15.992 171.709 16.886 171.301 17.678C170.893 18.458 170.329 19.07 169.609 19.514C168.901 19.946 168.115 20.162 167.251 20.162C166.483 20.162 165.799 20.012 165.199 19.712C164.611 19.412 164.143 19.028 163.795 18.56V20H161.743V6.68H163.795V11.558ZM169.825 14.996C169.825 14.312 169.681 13.724 169.393 13.232C169.117 12.728 168.745 12.35 168.277 12.098C167.821 11.834 167.329 11.702 166.801 11.702C166.285 11.702 165.793 11.834 165.325 12.098C164.869 12.362 164.497 12.746 164.209 13.25C163.933 13.754 163.795 14.348 163.795 15.032C163.795 15.716 163.933 16.316 164.209 16.832C164.497 17.336 164.869 17.72 165.325 17.984C165.793 18.248 166.285 18.38 166.801 18.38C167.329 18.38 167.821 18.248 168.277 17.984C168.745 17.708 169.117 17.312 169.393 16.796C169.681 16.28 169.825 15.68 169.825 14.996ZM176.516 7.49L176.282 16.22H174.572L174.338 7.49H176.516ZM175.49 20.126C175.118 20.126 174.806 20 174.554 19.748C174.302 19.496 174.176 19.184 174.176 18.812C174.176 18.44 174.302 18.128 174.554 17.876C174.806 17.624 175.118 17.498 175.49 17.498C175.85 17.498 176.156 17.624 176.408 17.876C176.66 18.128 176.786 18.44 176.786 18.812C176.786 19.184 176.66 19.496 176.408 19.748C176.156 20 175.85 20.126 175.49 20.126Z" fill="white"/>
</svg>
